<?xml version="1.0" encoding="UTF-8" standalone="no"?>
<svg
   width="750mm"
   height="266.25mm"
   viewBox="0 0 2834.6457 1006.2992"
   version="1.1"
   xml:space="preserve"
   style="clip-rule:evenodd;fill-rule:evenodd;stroke-linejoin:round;stroke-miterlimit:2"
   id="svg67"
   sodipodi:docname="passwordserver.svg"
   inkscape:version="1.3.2 (091e20e, 2023-11-25, custom)"
   xmlns:inkscape="http://www.inkscape.org/namespaces/inkscape"
   xmlns:sodipodi="http://sodipodi.sourceforge.net/DTD/sodipodi-0.dtd"
   xmlns="http://www.w3.org/2000/svg"
   xmlns:svg="http://www.w3.org/2000/svg"><defs
   id="defs67"><rect
     x="658.72235"
     y="170.27026"
     width="892.62897"
     height="404.17691"
     id="rect67" /></defs><sodipodi:namedview
   id="namedview67"
   pagecolor="#ffffff"
   bordercolor="#000000"
   borderopacity="0.25"
   inkscape:showpageshadow="2"
   inkscape:pageopacity="0.0"
   inkscape:pagecheckerboard="0"
   inkscape:deskcolor="#d1d1d1"
   inkscape:zoom="0.58142858"
   inkscape:cx="1117.9361"
   inkscape:cy="564.98771"
   inkscape:window-width="1920"
   inkscape:window-height="1001"
   inkscape:window-x="-7"
   inkscape:window-y="-7"
   inkscape:window-maximized="1"
   inkscape:current-layer="g43"
   showguides="true"
   inkscape:lockguides="false"
   inkscape:document-units="mm" />
    <g
   transform="matrix(1.2424345,0,0,1.2424345,-129.85032,-97.342903)"
   id="g2">
        <path
   d="m 289.877,550.014 c -25.887,29.491 -33.096,107.151 -8.192,106.168 24.903,-0.983 14.417,-33.751 14.417,-33.751"
   style="fill:#dfd6b8"
   id="path1" />
        <path
   d="m 288.047,548.407 c -8.702,9.282 -15.895,23.433 -20.305,38.678 -2.755,9.524 -4.263,19.471 -4.937,28.706 -1.035,14.185 0.358,26.849 4.354,34.622 3.302,6.426 8.274,9.886 14.677,9.603 9.447,-0.599 14.616,-4.891 17.243,-10.479 1.657,-3.524 2.299,-7.595 2.266,-11.568 -0.071,-8.426 -2.924,-16.28 -2.924,-16.28 -0.409,-1.28 -1.781,-1.987 -3.061,-1.577 -1.28,0.41 -1.986,1.781 -1.577,3.061 0,0 4.08,14.308 -0.809,23.276 -1.886,3.458 -5.403,5.805 -11.441,5.899 -3.374,0.117 -5.696,-2.107 -7.429,-5.496 -3.504,-6.853 -4.566,-18.018 -3.68,-30.513 0.621,-8.767 2.39,-18.124 4.712,-27.244 3.673,-14.426 8.996,-28.254 16.57,-37.475 0.887,-1.01 0.787,-2.55 -0.223,-3.436 -1.01,-0.887 -2.55,-0.787 -3.436,0.223 z"
   style="fill:#262d38"
   id="path2" />
    </g>
    <g
   transform="matrix(1.2307692,-0.16985446,0.16985446,1.2307692,-85.80725,103.40124)"
   id="g4">
        <path
   d="m 271.445,597.118 c -22.201,27.443 -14.664,60.047 10.24,59.064 24.903,-0.983 18.104,-41.533 18.104,-41.533"
   style="fill:#dfd6b8"
   id="path3" />
        <path
   d="m 269.552,595.586 c -8.533,9.692 -13.387,20.203 -14.724,29.826 -0.748,5.384 -0.279,10.48 0.92,14.983 3.216,12.081 12.414,20.162 26.09,19.68 10.043,-0.459 15.972,-6.068 19.059,-13.58 2.072,-5.042 2.799,-10.944 2.843,-16.335 0.071,-8.653 -1.55,-15.914 -1.55,-15.914 -0.222,-1.325 -1.478,-2.221 -2.804,-1.999 -1.325,0.222 -2.221,1.479 -1.998,2.804 0,0 0.53,5.209 0.179,11.843 -0.28,5.288 -1.212,11.469 -3.58,16.585 -2.224,4.805 -5.906,8.592 -12.456,8.81 -9.67,0.423 -16.194,-5.314 -18.506,-13.849 -0.987,-3.646 -1.14,-7.762 -0.716,-12.148 0.835,-8.653 4.143,-18.365 11.029,-27.643 0.845,-1.045 0.683,-2.579 -0.362,-3.424 -1.045,-0.846 -2.579,-0.683 -3.424,0.361 z"
   style="fill:#262d38"
   id="path4" />
    </g>
    <g
   transform="matrix(1.2307692,-0.16985446,0.16985446,1.2307692,122.84186,106.96352)"
   id="g6">
        <path
   d="m 271.445,597.118 c -22.201,27.443 -14.664,60.047 10.24,59.064 24.903,-0.983 14.396,-51.217 14.396,-51.217"
   style="fill:#dfd6b8"
   id="path5" />
        <path
   d="m 269.552,595.586 c -9.982,11.398 -14.911,23.941 -15.13,34.787 -0.072,3.561 0.493,6.924 1.336,10.019 3.285,12.057 12.409,20.153 26.08,19.67 10.936,-0.455 16.728,-8.341 18.885,-18.741 0.989,-4.767 1.189,-10.039 0.961,-15.075 -0.524,-11.534 -3.22,-21.78 -3.22,-21.78 -0.275,-1.315 -1.567,-2.16 -2.882,-1.885 -1.315,0.275 -2.16,1.567 -1.885,2.882 0,0 1.501,9.897 1.177,20.836 -0.133,4.486 -0.613,9.134 -1.629,13.346 -1.613,6.693 -4.624,12.392 -11.714,12.657 -9.675,0.422 -16.252,-5.305 -18.516,-13.859 -0.656,-2.475 -0.851,-5.178 -0.872,-8.02 -0.072,-9.635 3.148,-20.991 11.195,-31.774 0.845,-1.045 0.683,-2.579 -0.362,-3.424 -1.045,-0.846 -2.579,-0.683 -3.424,0.361 z"
   style="fill:#262d38"
   id="path6" />
    </g>
    <g
   transform="matrix(-0.99666106,0.01759014,0.08798275,1.2410753,954.66572,-106.51828)"
   id="g8">
        <path
   d="m 289.877,550.014 c -25.887,29.491 -33.096,107.151 -8.192,106.168 24.903,-0.983 16.074,-34.229 16.074,-34.229"
   style="fill:#dfd6b8"
   id="path7" />
        <path
   d="m 292.393,551.484 c -7.463,9.176 -12.571,22.935 -16.197,37.327 -2.239,8.888 -4.06,18.004 -4.74,26.602 -0.97,12.262 -0.072,23.347 3.047,30.584 0.862,2 1.861,3.666 3.134,4.869 0.988,0.934 2.129,1.533 3.559,1.485 6.325,-0.122 9.8,-3.079 11.752,-6.888 4.789,-9.345 1.84,-23.126 1.84,-23.126 -0.352,-1.327 0.693,-2.576 2.333,-2.789 1.64,-0.212 3.257,0.693 3.61,2.02 0,0 4.816,15.602 0.226,26.572 -2.692,6.434 -8.44,11.254 -18.784,11.873 -5.718,0.254 -10.494,-2.083 -13.999,-6.784 -5.528,-7.413 -7.585,-22.094 -6.234,-38.709 0.728,-8.958 2.18,-18.55 4.9,-27.729 4.464,-15.066 11.81,-29.037 20.52,-38.247 0.94,-1.072 2.831,-1.283 4.22,-0.471 1.389,0.811 1.753,2.34 0.813,3.411 z"
   style="fill:#262d38"
   id="path8" />
    </g>
    <g
   transform="matrix(1.2424345,0,0,1.2424345,81.112196,-135.76642)"
   id="g17">
        <path
   d="m 308.937,243.302 c -9.076,0.195 -21.862,-0.573 -32.786,-2.125 -1.749,-0.248 1.261,4.707 -0.46,4.824 -7.293,0.494 -14.176,0.528 -20.102,-0.675 5.784,1.638 8.616,6.741 9.616,7.696 -16.293,-1.443 -32.401,2.236 -45.28,5.572 9.325,1.076 10.333,1.721 14.88,5.528 -15.422,1.292 -23.864,2.122 -38.6,8.9 l 17.5,1.5 c -19.989,3.498 -38.926,9.942 -55.5,23 6.86,1.46 14.275,2.088 22.5,1.5 -25.026,5.963 -36.426,12.093 -49.065,22.186 l 18.84,-0.336 c -13.554,7.169 -21.175,19.742 -30.632,33.056 l 22.732,-7.156 c -14.093,10.73 -23.711,23.696 -30.976,37.84 l 15.476,-5.34 c -8.86,5.52 -16.749,19.322 -24.244,32.352 3.334,-0.997 6.536,-5.975 11.244,-2.852 -7.827,8.599 -14.161,19.119 -17.208,33.864 l 11.708,-2.364 c -9.077,6.686 -10.338,18.449 -14.636,31.28 4.209,0.78 7.744,-4.508 12.636,-5.78 -5.885,9.059 -10.912,21.034 -13.38,41.708 5.893,-3.336 10.535,-5.42 14.38,-6.708 -7.768,13.372 -11.193,22.763 -10.769,42.28 6.634,-6.506 8.857,2.891 14.809,-0.2 -6.47,13.394 -12.544,19.112 -14.784,44.492 3.951,-0.982 8.197,-2.111 14.892,-4.464 -4.757,9.404 -5.709,23.856 -7.052,40.088 2.583,-2.228 6.349,-3.666 10.98,-4.528 -3.786,14.17 -0.39,28.239 -0.064,37.612 1.813,-4.396 4.555,-7.555 8.416,-9.22 1.014,16.585 0.608,31.278 8.108,56.512 7.5,-4.867 8.305,-7.742 12.392,-8.512 -1.627,10.506 1.117,23.397 7,38 3.535,-3.914 7.6,-6.5 12.5,-7 -3.776,8.795 5.516,20.606 19.5,33.5 l 6.5,-10 c 7.826,11.922 22.284,18.614 35.572,26.44 -1.576,-5.587 2.019,-9.327 10,-11.5 8.139,8.336 17.198,15.957 31.5,19.5 -1.553,-3.834 0.227,-7.667 5.5,-11.5 5.167,6.12 10.333,8.982 15.5,11 -0.3,-4.114 3.56,-7.118 13.5,-8.5 l 1,10.5 c 1.119,-5.871 5.237,-9.408 12.5,-10.5 3.961,1.538 6.769,4.23 8,8.5 10.997,-2.67 21.05,-6.6 30,-12 3.517,0.982 2.957,2.714 1.696,8.476 19.132,-5.52 40.854,-9.395 55.804,-23.976 4.475,0.734 6.669,4.256 5,12.5 12.014,-7.229 22.582,-16.627 30.5,-30 4.204,1.109 7.979,4.794 11.5,10 9.621,-16.061 11.602,-30.541 10.3,-41.14 l 12,9 c 6.673,-17.422 11.023,-32.908 9.5,-43.5 l 10,13 c 4.046,-24.532 9.115,-46.502 7.7,-57.38 l 17,7 c -2.61,-22.836 -5.375,-45.437 -13.5,-60 l 18.5,13.5 c -3.22,-19.88 -4.987,-38.472 -15.08,-53.54 l 11.7,3.32 c -1.516,-19.432 -5.663,-29.797 -12.64,-47.18 4.029,2.205 8.923,5.564 15,10.5 -3.27,-21.466 -9.087,-42.083 -18.5,-61.5 l 14,7.5 c -7.201,-21.5 -15.325,-42.422 -28,-60.5 4.407,2.426 9.035,4.631 15.5,5 -8.515,-21.535 -14.493,-39.307 -28.48,-50.58 4.332,1.666 10.204,3.333 20,5 -12.666,-21.988 -22.203,-28.032 -33.5,-33.6 3.755,-2.373 11.575,-0.193 19.428,-0.516 -12.553,-12.718 -34.017,-20.167 -49.303,-22.634 8.144,-2.892 15.147,-6.755 23.12,-4.868 -13.961,-9.869 -38.738,-19.673 -58.244,-23.996 5.837,-0.527 12.421,-1.427 19.624,-2.636 -16.873,-6.14 -35.092,-9.588 -55.378,-8.9 -0.461,-3.34 2.983,-5.704 10.715,-6.996 -6.687,-0.888 -19.657,1.143 -27.7,0.815 -1.722,-0.07 1.327,-4.339 -0.364,-4.2 -5.88,0.484 -10.875,4.288 -16.633,5.445 -8.427,-0.712 -14.933,-2.038 -25.408,-1.384 z"
   style="fill:#9ed6ff"
   id="path9" />
        <clipPath
   id="_clip1">
            <path
   d="m 308.937,243.302 c -9.076,0.195 -21.862,-0.573 -32.786,-2.125 -1.749,-0.248 1.261,4.707 -0.46,4.824 -7.293,0.494 -14.176,0.528 -20.102,-0.675 5.784,1.638 8.616,6.741 9.616,7.696 -16.293,-1.443 -32.401,2.236 -45.28,5.572 9.325,1.076 10.333,1.721 14.88,5.528 -15.422,1.292 -23.864,2.122 -38.6,8.9 l 17.5,1.5 c -19.989,3.498 -38.926,9.942 -55.5,23 6.86,1.46 14.275,2.088 22.5,1.5 -25.026,5.963 -36.426,12.093 -49.065,22.186 l 18.84,-0.336 c -13.554,7.169 -21.175,19.742 -30.632,33.056 l 22.732,-7.156 c -14.093,10.73 -23.711,23.696 -30.976,37.84 l 15.476,-5.34 c -8.86,5.52 -16.749,19.322 -24.244,32.352 3.334,-0.997 6.536,-5.975 11.244,-2.852 -7.827,8.599 -14.161,19.119 -17.208,33.864 l 11.708,-2.364 c -9.077,6.686 -10.338,18.449 -14.636,31.28 4.209,0.78 7.744,-4.508 12.636,-5.78 -5.885,9.059 -10.912,21.034 -13.38,41.708 5.893,-3.336 10.535,-5.42 14.38,-6.708 -7.768,13.372 -11.193,22.763 -10.769,42.28 6.634,-6.506 8.857,2.891 14.809,-0.2 -6.47,13.394 -12.544,19.112 -14.784,44.492 3.951,-0.982 8.197,-2.111 14.892,-4.464 -4.757,9.404 -5.709,23.856 -7.052,40.088 2.583,-2.228 6.349,-3.666 10.98,-4.528 -3.786,14.17 -0.39,28.239 -0.064,37.612 1.813,-4.396 4.555,-7.555 8.416,-9.22 1.014,16.585 0.608,31.278 8.108,56.512 7.5,-4.867 8.305,-7.742 12.392,-8.512 -1.627,10.506 1.117,23.397 7,38 3.535,-3.914 7.6,-6.5 12.5,-7 -3.776,8.795 5.516,20.606 19.5,33.5 l 6.5,-10 c 7.826,11.922 22.284,18.614 35.572,26.44 -1.576,-5.587 2.019,-9.327 10,-11.5 8.139,8.336 17.198,15.957 31.5,19.5 -1.553,-3.834 0.227,-7.667 5.5,-11.5 5.167,6.12 10.333,8.982 15.5,11 -0.3,-4.114 3.56,-7.118 13.5,-8.5 l 1,10.5 c 1.119,-5.871 5.237,-9.408 12.5,-10.5 3.961,1.538 6.769,4.23 8,8.5 10.997,-2.67 21.05,-6.6 30,-12 3.517,0.982 2.957,2.714 1.696,8.476 19.132,-5.52 40.854,-9.395 55.804,-23.976 4.475,0.734 6.669,4.256 5,12.5 12.014,-7.229 22.582,-16.627 30.5,-30 4.204,1.109 7.979,4.794 11.5,10 9.621,-16.061 11.602,-30.541 10.3,-41.14 l 12,9 c 6.673,-17.422 11.023,-32.908 9.5,-43.5 l 10,13 c 4.046,-24.532 9.115,-46.502 7.7,-57.38 l 17,7 c -2.61,-22.836 -5.375,-45.437 -13.5,-60 l 18.5,13.5 c -3.22,-19.88 -4.987,-38.472 -15.08,-53.54 l 11.7,3.32 c -1.516,-19.432 -5.663,-29.797 -12.64,-47.18 4.029,2.205 8.923,5.564 15,10.5 -3.27,-21.466 -9.087,-42.083 -18.5,-61.5 l 14,7.5 c -7.201,-21.5 -15.325,-42.422 -28,-60.5 4.407,2.426 9.035,4.631 15.5,5 -8.515,-21.535 -14.493,-39.307 -28.48,-50.58 4.332,1.666 10.204,3.333 20,5 -12.666,-21.988 -22.203,-28.032 -33.5,-33.6 3.755,-2.373 11.575,-0.193 19.428,-0.516 -12.553,-12.718 -34.017,-20.167 -49.303,-22.634 8.144,-2.892 15.147,-6.755 23.12,-4.868 -13.961,-9.869 -38.738,-19.673 -58.244,-23.996 5.837,-0.527 12.421,-1.427 19.624,-2.636 -16.873,-6.14 -35.092,-9.588 -55.378,-8.9 -0.461,-3.34 2.983,-5.704 10.715,-6.996 -6.687,-0.888 -19.657,1.143 -27.7,0.815 -1.722,-0.07 1.327,-4.339 -0.364,-4.2 -5.88,0.484 -10.875,4.288 -16.633,5.445 -8.427,-0.712 -14.933,-2.038 -25.408,-1.384 z"
   id="path10" />
        </clipPath>
        <g
   clip-path="url(#_clip1)"
   id="g16">
            <path
   d="m 473.025,293.059 c -8.868,-0.39 -14.799,3.04 -24.858,10.986 13.801,8.55 19.273,27.744 22.695,43.081 l -33.504,13.062 c 22.82,26.978 26.119,59.325 32.369,90.86 -10.236,-1.143 -17.866,-0.896 -22.148,1.136 15.348,21.356 22.953,47.286 29.53,73.824 -8.726,1.483 -15.804,0.217 -22.147,-2.271 0.985,14.101 15.522,46.52 30.676,50.567 -6.78,9.271 -16.588,11.71 -16.54,21.021 5.028,3.246 14.019,29.109 13.092,34.339 -20.305,-12.922 -27.284,-4.173 -32.724,-3.467 3.58,11.323 17.766,26.801 17.425,39.564 -8.432,-2.325 -20.47,-14.286 -29.699,-12.231 10.405,14.5 -4.316,17.661 -0.907,34.63 -15.113,5.207 -20.664,-2.489 -32.998,-5.619 -1.694,17.179 -9.367,24.19 -13.046,36.208 -11.557,2.037 -25.185,-9.711 -36.344,-13.629 -0.034,14.341 -19.659,12.132 -26.566,24.047 -17.128,-2.197 -27.487,-9.916 -29.53,-24.419 -8.675,11.176 -17.618,19.144 -26.69,25.555 -11.941,-5.055 -21.899,-11.873 -26.69,-23.283 -8.004,5.359 -10.898,11.793 -11.358,18.74 -12.379,-15.954 -20.637,-28.711 -26.264,-45.856 -7.946,2.751 -12.505,10.584 -16.469,19.307 -13.472,-15.458 -23.143,-33.957 -26.69,-57.355 -5.42,7.472 -7.643,15.583 -9.086,23.851 -9.924,-15.246 -13.407,-35.531 -14.197,-57.924 -8.738,1.574 -13.639,7.624 -17.604,14.765 -0.84,-17.415 1.075,-34.83 7.382,-52.245 h -15.427 c 0.264,-9.779 3.651,-18.258 8.68,-26.052 l -26.776,-11.078 -20.426,96.757 70.417,168.092 217.498,10.79 215.226,-91.996 21.012,-153.896 -8.518,-147.648 z"
   style="fill:#8dbfe4"
   id="path11" />
            <path
   d="m 147.993,342.593 c 4.498,-9.381 8.467,-19.026 25.586,-22.097 -5.418,-4.91 -7.279,-7.787 -7.269,-9.595 l 11.921,-0.581 c -2.396,-4.104 -0.415,-7.333 4.943,-9.886 l -40.996,-6.397 56.115,-42.74 41.813,12.372 c 3.949,-1.184 11.592,-2.57 18.082,-0.451 -1.346,-1.217 -1.924,-2.818 0.291,-5.816 6.47,-0.364 8.376,3.836 13.83,4.488 1.286,-3.679 1.803,-6.242 10.019,-9.922 3.541,5.433 11.825,2.379 15.566,4.027 5.084,-2.214 16.889,-5.475 28.331,-5.571 2.948,0.653 5.196,1.744 4.07,4.943 10.847,-4.725 16.466,-3.947 22.388,-3.489 3.699,1.728 7.659,3.411 2.326,6.687 10.066,-0.774 17.365,-2.025 20.062,-4.07 l 13.375,6.687 125.024,27.331 -45.067,-96.53 -148.866,1.454 -136.363,9.595 -63.094,45.066 -22.969,66.583 8.722,36.344"
   style="fill:#8dbfe4"
   id="path12" />
            <path
   d="m 348.899,714.65 c -0.534,-11.362 0.914,-25.417 -2.751,-38.42 6.025,2.295 7.69,6.363 12.532,6.974 -4.188,-34.102 -14.598,-44.692 -19.749,-50.539 6.145,0.264 5.566,-8.669 4.794,-9.739 -9.263,-12.847 -3.42,-28.999 -11.966,-34.72 31.873,-27.927 88.227,-40.283 134.239,-57.016 32.298,60.336 4.017,125.193 -45.056,191.601 z"
   style="fill:#8dbfe4"
   id="path13" />
            <path
   d="m 281.385,534.157 c 0,0 -0.002,12.938 2.043,19.239 0.922,-2.041 2.253,-1.788 3.156,-1.192 6.027,3.977 8.585,7.672 8.602,9.907 l 5.438,-1.043 8.956,10.139 c 3.59,-1.606 10.042,1.732 16.693,4.461 6.558,-1.977 9.888,-3.406 13.16,-1.259 1.255,-1.35 9.095,-10.807 10.519,-13.669 4.913,-2.529 8.973,-4.904 12.269,-7.076 3.706,-2.441 6.448,-4.626 8.353,-6.483 l -6.702,-11.859"
   style="fill:#8dbfe4"
   id="path14" />
            <path
   d="m 137.619,630.006 c -6.122,-6.439 -9.199,-48.687 2.929,-58.941 4.897,2.194 21.172,1.341 25.261,6.784 10.989,-10.105 48.641,-10.321 56.131,-29.583 10.398,7.803 15.797,-17.205 26.703,-9.872 10.579,-24.719 16.92,-35.415 25.955,-56.411 l -145.018,42.409 -18.058,12.233 -13.69,38.739 -1.021,55.38 z"
   style="fill:#8dbfe4"
   id="path15" />
            <path
   d="m 366.367,456.042 c 7.522,16.839 17.855,32.939 17.764,49.778 7.108,1.225 10.726,6.282 16.979,9.931 7.761,11.584 16.024,19.225 28.804,33.409 l 24.365,-3.222 65.914,7.953 -38.229,-73.728 z"
   style="fill:#8dbfe4"
   id="path16" />
        </g>
        <path
   d="m 334.167,241.974 c 3.759,-0.839 7.179,-2.829 10.785,-4.114 1.875,-0.668 3.794,-1.168 5.802,-1.338 2.228,-0.189 3.119,0.943 3.424,2.562 0.06,0.317 -0.027,0.969 -0.156,1.643 5.902,-0.079 13.472,-0.971 19.424,-1.107 2.253,-0.052 4.291,0.004 5.965,0.222 1.378,0.183 2.415,1.347 2.438,2.737 0.024,1.39 -0.974,2.587 -2.345,2.817 -2.062,0.349 -3.788,0.772 -5.179,1.287 7.815,0.026 15.331,0.661 22.588,1.816 9.7,1.543 18.936,4.019 27.81,7.223 1.272,0.463 2.072,1.724 1.949,3.071 -0.124,1.348 -1.14,2.443 -2.474,2.667 l -4.803,0.656 c 5.327,1.651 10.747,3.566 16.01,5.662 11.027,4.39 21.364,9.58 28.756,14.778 1.244,0.88 1.69,2.517 1.063,3.906 -0.626,1.388 -2.149,2.138 -3.632,1.787 -2.792,-0.654 -5.442,-0.448 -8.077,0.158 -0.933,0.214 -1.864,0.477 -2.796,0.775 5.252,1.397 10.765,3.249 16.139,5.563 9.015,3.883 17.625,9.075 24.041,15.551 0.934,0.946 1.222,2.354 0.735,3.591 -0.488,1.238 -1.659,2.071 -2.988,2.125 -2.735,0.118 -5.467,-0.061 -8.029,-0.249 3.491,2.332 6.947,5.172 10.529,8.998 4.512,4.821 9.232,11.235 14.459,20.268 0.675,1.172 0.612,2.628 -0.161,3.738 -0.773,1.109 -2.117,1.673 -3.45,1.446 -2.934,-0.493 -5.525,-0.988 -7.831,-1.491 2.247,2.947 4.269,6.136 6.148,9.544 5.166,9.371 9.248,20.45 14.137,32.746 0.458,1.156 0.294,2.466 -0.434,3.474 -0.728,1.007 -1.92,1.575 -3.162,1.504 -2.124,-0.117 -4.072,-0.413 -5.889,-0.84 2.64,4.456 5.067,9.045 7.328,13.738 5.805,12.053 10.504,24.801 14.869,37.758 0.494,1.475 0.038,3.103 -1.151,4.107 -1.189,1.004 -2.87,1.18 -4.242,0.446 l -4.132,-2.207 c 2.766,6.646 5.153,13.421 7.2,20.31 3.094,10.409 5.412,21.077 7.085,31.962 0.243,1.595 -0.52,3.175 -1.921,3.976 -1.4,0.802 -3.148,0.659 -4.401,-0.358 -1.51,-1.223 -2.946,-2.347 -4.314,-3.375 1.535,4.056 2.865,7.883 3.999,11.789 2.135,7.358 3.585,14.995 4.366,24.928 0.1,1.292 -0.437,2.551 -1.44,3.372 -1.003,0.821 -2.344,1.1 -3.59,0.746 l -2.49,-0.705 c 1.926,4.142 3.439,8.477 4.682,12.975 2.881,10.421 4.298,21.738 6.206,33.502 0.258,1.596 -0.473,3.191 -1.851,4.037 -1.378,0.846 -3.131,0.775 -4.437,-0.178 l -7.051,-5.149 c 1.081,3.437 2.021,7.079 2.851,10.878 2.486,11.376 4.012,24.201 5.481,37.101 0.159,1.39 -0.429,2.761 -1.546,3.605 -1.117,0.843 -2.596,1.034 -3.89,0.501 l -11.343,-4.676 c -0.104,3.462 -0.501,7.464 -1.112,11.897 -1.536,11.141 -4.39,25.165 -6.866,40.141 -0.254,1.543 -1.4,2.787 -2.917,3.168 -1.516,0.381 -3.114,-0.174 -4.068,-1.414 l -3.137,-4.08 c -0.294,2.342 -0.732,4.799 -1.297,7.355 -1.741,7.883 -4.687,16.778 -8.31,26.227 -0.438,1.144 -1.387,2.015 -2.563,2.354 -1.176,0.339 -2.443,0.107 -3.423,-0.627 l -5.447,-4.089 c -0.155,4.414 -0.831,9.233 -2.211,14.363 -1.741,6.472 -4.603,13.452 -8.972,20.738 -0.681,1.137 -1.896,1.848 -3.221,1.884 -1.326,0.037 -2.578,-0.606 -3.321,-1.704 -1.415,-2.095 -2.867,-3.921 -4.389,-5.38 -0.777,-0.744 -1.563,-1.39 -2.371,-1.908 -3.618,5.597 -7.704,10.492 -12.166,14.823 -5.451,5.292 -11.462,9.743 -17.871,13.596 -1.311,0.788 -2.963,0.728 -4.213,-0.154 -1.25,-0.881 -1.86,-2.418 -1.557,-3.917 0.516,-2.541 0.646,-4.508 0.303,-6 -0.125,-0.545 -0.357,-0.959 -0.683,-1.261 -5.913,5.282 -12.708,9.157 -19.934,12.213 -11.466,4.848 -24.028,7.609 -35.652,10.953 -1.291,0.372 -2.683,0.038 -3.664,-0.881 -0.98,-0.918 -1.405,-2.285 -1.117,-3.598 0.176,-0.804 0.339,-1.639 0.472,-2.384 -3.7,2.02 -7.567,3.815 -11.592,5.398 -5.074,1.995 -10.4,3.654 -15.96,4.999 -1.969,0.478 -3.964,-0.68 -4.525,-2.626 -0.425,-1.48 -1.104,-2.699 -2.036,-3.674 -0.777,-0.813 -1.72,-1.456 -2.796,-1.966 -2.185,0.425 -3.982,1.13 -5.366,2.19 -1.603,1.229 -2.565,2.95 -2.978,5.106 -0.35,1.838 -1.998,3.138 -3.866,3.051 -1.869,-0.088 -3.389,-1.536 -3.566,-3.398 l -0.609,-6.446 c -1.414,0.321 -2.625,0.698 -3.646,1.135 -1.763,0.752 -2.867,1.435 -2.777,2.683 0.093,1.279 -0.476,2.517 -1.509,3.279 -1.032,0.761 -2.383,0.94 -3.578,0.474 -3.095,-1.212 -6.186,-2.708 -9.281,-4.907 -1.731,-1.23 -3.464,-2.678 -5.192,-4.429 -0.544,0.552 -0.989,1.109 -1.333,1.672 -0.67,1.098 -0.838,2.19 -0.394,3.289 0.524,1.293 0.279,2.771 -0.636,3.825 -0.914,1.055 -2.342,1.507 -3.697,1.172 -7.181,-1.785 -13.119,-4.536 -18.298,-7.875 -5.027,-3.241 -9.333,-7.039 -13.362,-11.056 -1.803,0.622 -3.252,1.355 -4.3,2.267 -1.212,1.055 -1.58,2.408 -1.115,4.064 0.407,1.443 -0.104,2.988 -1.291,3.904 -1.187,0.915 -2.812,1.016 -4.104,0.255 -7.877,-4.647 -16.155,-8.912 -23.259,-14.065 -3.807,-2.763 -7.284,-5.78 -10.226,-9.217 l -3.683,5.657 c -0.582,0.896 -1.529,1.489 -2.59,1.622 -1.06,0.133 -2.125,-0.208 -2.91,-0.932 -8.817,-8.142 -15.787,-15.924 -19.119,-22.795 -1.413,-2.914 -2.206,-5.705 -2.338,-8.344 -0.223,0.116 -0.444,0.238 -0.662,0.367 -1.718,1.012 -3.289,2.381 -4.761,4.008 -0.829,0.918 -2.071,1.343 -3.288,1.127 -1.217,-0.216 -2.237,-1.044 -2.699,-2.19 -3.339,-8.307 -5.686,-16.08 -6.849,-23.198 -0.544,-3.323 -0.83,-6.509 -0.845,-9.547 -1.496,1.302 -3.425,2.935 -6.443,4.89 -0.937,0.609 -2.107,0.739 -3.155,0.353 -1.049,-0.387 -1.854,-1.245 -2.172,-2.316 -3.317,-11.19 -5.109,-20.347 -6.161,-28.513 -1.033,-8.01 -1.347,-15.055 -1.692,-22.143 -0.801,1.07 -1.475,2.306 -2.045,3.685 -0.627,1.52 -2.229,2.397 -3.847,2.105 -1.618,-0.291 -2.814,-1.672 -2.871,-3.315 -0.205,-6.043 -1.673,-14.029 -1.695,-22.737 -0.008,-3.325 0.189,-6.75 0.723,-10.214 l -0.035,0.013 c -1.636,0.621 -3.047,1.379 -4.168,2.344 -1.06,0.914 -2.568,1.096 -3.815,0.461 -1.248,-0.635 -1.987,-1.961 -1.872,-3.357 0.749,-8.94 1.384,-17.346 2.582,-24.684 0.579,-3.545 1.294,-6.85 2.205,-9.863 l -8.373,2.501 c -1.064,0.264 -2.191,-0.002 -3.024,-0.715 -0.833,-0.713 -1.271,-1.784 -1.174,-2.877 0.962,-10.781 2.605,-18.13 4.653,-24.01 2.267,-6.507 5.045,-11.185 8.009,-16.773 -0.491,-0.19 -0.972,-0.415 -1.447,-0.662 -1.135,-0.59 -2.078,-1.679 -3.388,-1.557 -0.644,0.06 -1.279,0.547 -2.139,1.388 -0.949,0.931 -2.359,1.208 -3.59,0.707 -1.231,-0.501 -2.046,-1.685 -2.075,-3.014 -0.195,-9.408 0.486,-16.55 2.06,-22.891 1.115,-4.494 2.677,-8.59 4.718,-12.8 -1.686,0.835 -3.494,1.796 -5.444,2.897 -1.074,0.608 -2.4,0.56 -3.428,-0.124 -1.028,-0.684 -1.583,-1.888 -1.437,-3.115 1.059,-8.793 2.572,-16.05 4.407,-22.196 1.206,-4.042 2.553,-7.611 4.007,-10.821 l -0.536,0.218 c -1.458,0.528 -2.938,0.71 -4.468,0.425 -0.917,-0.17 -1.715,-0.729 -2.188,-1.532 -0.473,-0.803 -0.575,-1.772 -0.278,-2.656 2.972,-8.846 4.572,-17.182 8.124,-23.774 0.272,-0.505 0.554,-1 0.85,-1.483 l -2.366,0.475 c -1.045,0.211 -2.126,-0.117 -2.878,-0.872 -0.752,-0.755 -1.074,-1.838 -0.858,-2.882 1.492,-7.188 3.736,-13.411 6.533,-18.918 1.805,-3.553 3.84,-6.809 6.057,-9.831 -0.885,0.587 -1.75,1.114 -2.623,1.374 -1.226,0.367 -2.552,-0.051 -3.346,-1.055 -0.794,-1.003 -0.896,-2.389 -0.258,-3.498 4.206,-7.295 8.539,-14.826 13.087,-21.051 0.579,-0.792 1.163,-1.564 1.752,-2.312 l -2.361,0.812 c -1.185,0.409 -2.5,0.057 -3.321,-0.891 -0.822,-0.947 -0.984,-2.299 -0.412,-3.414 3.83,-7.439 8.297,-14.557 13.691,-21.212 2.24,-2.764 4.64,-5.448 7.221,-8.042 l -9.035,2.835 c -1.23,0.387 -2.569,-0.054 -3.327,-1.097 -0.759,-1.042 -0.767,-2.452 -0.02,-3.503 5.662,-7.954 10.687,-15.64 16.667,-22.103 2.016,-2.177 4.138,-4.219 6.425,-6.089 l -8.802,0.148 c -1.258,0.023 -2.391,-0.758 -2.817,-1.942 -0.427,-1.184 -0.052,-2.508 0.931,-3.293 7.417,-5.911 14.422,-10.493 23.839,-14.477 2.664,-1.128 5.523,-2.207 8.643,-3.254 -1.589,-0.241 -3.147,-0.528 -4.68,-0.856 -1.087,-0.231 -1.942,-1.07 -2.194,-2.152 -0.252,-1.083 0.145,-2.213 1.018,-2.901 8.457,-6.65 17.508,-11.628 26.993,-15.39 3.992,-1.583 8.061,-2.95 12.194,-4.133 -1.1,-0.234 -1.966,-1.116 -2.163,-2.247 -0.218,-1.247 0.432,-2.485 1.583,-3.014 7.506,-3.444 13.43,-5.388 19.417,-6.638 3.59,-0.75 7.204,-1.248 11.206,-1.662 -1.508,-0.317 -3.422,-0.569 -6.051,-0.875 -1.309,-0.151 -2.325,-1.214 -2.416,-2.529 -0.092,-1.315 0.768,-2.508 2.044,-2.839 8.108,-2.092 17.479,-4.311 27.371,-5.345 4.011,-0.42 8.107,-0.645 12.24,-0.586 -1.077,-0.865 -2.393,-1.653 -3.992,-2.108 -1.386,-0.393 -2.214,-1.811 -1.874,-3.212 0.34,-1.4 1.726,-2.281 3.138,-1.995 2.381,0.486 4.925,0.759 7.593,0.88 3.016,0.136 6.186,0.079 9.456,-0.098 -0.082,-0.36 -0.152,-0.704 -0.187,-0.948 -0.153,-1.062 0.055,-1.919 0.36,-2.465 0.563,-1.007 1.483,-1.762 3.18,-1.519 5.165,0.738 10.752,1.3 16.156,1.665 5.86,0.395 11.504,0.56 16.163,0.466 3.915,-0.252 7.292,-0.232 10.423,-0.072 5.197,0.265 9.699,0.927 14.901,1.367 z m 13.964,0.57 c -0.461,0.13 -0.916,0.278 -1.369,0.437 -3.961,1.39 -7.739,3.515 -11.888,4.338 -0.249,0.05 -0.503,0.064 -0.755,0.043 -5.316,-0.462 -9.862,-1.17 -15.136,-1.465 -2.965,-0.166 -6.166,-0.199 -9.883,0.024 l -0.107,0.004 c -4.798,0.108 -10.619,-0.047 -16.663,-0.443 -4.513,-0.296 -9.149,-0.726 -13.575,-1.282 0.1,0.594 0.161,1.154 0.125,1.49 -0.192,1.803 -1.16,2.839 -3.009,2.966 -3.628,0.25 -7.157,0.386 -10.522,0.318 0.812,0.978 1.372,1.772 1.716,2.101 0.827,0.79 1.065,2.016 0.593,3.058 -0.472,1.042 -1.551,1.672 -2.691,1.571 -6.01,-0.526 -11.993,-0.332 -17.788,0.286 -5.32,0.566 -10.483,1.489 -15.367,2.555 1.493,0.802 2.859,1.879 4.76,3.466 0.855,0.717 1.194,1.878 0.857,2.942 -0.337,1.063 -1.283,1.818 -2.394,1.911 -7.674,0.651 -13.591,1.176 -19.44,2.41 -2.427,0.511 -4.842,1.147 -7.37,1.966 l 5.72,0.485 c 1.405,0.12 2.503,1.265 2.564,2.674 0.062,1.409 -0.931,2.645 -2.32,2.888 -9.873,1.738 -19.484,4.203 -28.668,7.865 -6.99,2.788 -13.731,6.27 -20.146,10.659 1.38,0.167 2.784,0.298 4.213,0.39 3.476,0.223 7.103,0.217 10.911,-0.059 1.5,-0.107 2.831,0.955 3.059,2.441 0.229,1.486 -0.721,2.899 -2.184,3.247 -10.574,2.531 -18.673,5.082 -25.454,7.967 -5.785,2.461 -10.6,5.165 -15.185,8.3 l 9.692,-0.182 c 1.369,-0.024 2.575,0.894 2.916,2.219 0.342,1.325 -0.271,2.712 -1.48,3.352 -5.253,2.785 -9.553,6.439 -13.423,10.638 -3.964,4.299 -7.483,9.16 -11.063,14.279 l 14.295,-4.515 c 1.401,-0.441 2.917,0.189 3.593,1.493 0.675,1.305 0.315,2.906 -0.854,3.796 -6.654,5.077 -12.278,10.667 -17.11,16.653 -3.422,4.239 -6.447,8.676 -9.16,13.27 l 7.932,-2.746 c 1.485,-0.512 3.117,0.172 3.793,1.59 0.676,1.418 0.179,3.117 -1.154,3.947 -3.674,2.294 -7.126,6.163 -10.485,10.778 -2.649,3.64 -5.217,7.741 -7.727,11.975 1.638,-0.116 3.404,0.249 5.314,1.513 0.763,0.506 1.267,1.32 1.379,2.229 0.113,0.908 -0.177,1.821 -0.793,2.497 -3.982,4.384 -7.562,9.287 -10.473,15.045 -1.921,3.799 -3.55,7.97 -4.815,12.609 l 6.837,-1.388 c 1.465,-0.295 2.938,0.466 3.543,1.832 0.605,1.366 0.18,2.969 -1.023,3.855 -3.438,2.538 -5.553,5.937 -7.199,9.851 -1.723,4.098 -2.941,8.73 -4.359,13.639 2.111,-1.421 4.329,-3.023 6.855,-3.683 1.291,-0.336 2.656,0.156 3.436,1.238 0.78,1.083 0.816,2.533 0.089,3.652 -3.293,5.08 -6.298,11.118 -8.699,19.218 -1.278,4.309 -2.383,9.192 -3.27,14.812 l 1.501,-0.735 c 2.893,-1.383 5.436,-2.411 7.712,-3.176 1.298,-0.435 2.73,-0.02 3.595,1.041 0.865,1.061 0.983,2.547 0.295,3.731 -3.983,6.873 -6.794,12.637 -8.457,19.398 -1.122,4.557 -1.722,9.562 -1.838,15.649 l 0.528,-0.073 c 1.853,-0.176 3.513,0.352 5.105,1.178 1.333,0.691 2.46,2.269 4.314,1.305 1.279,-0.665 2.841,-0.436 3.876,0.569 1.034,1.005 1.309,2.559 0.682,3.858 -3.745,7.771 -7.377,12.907 -10.157,20.939 -1.565,4.521 -2.85,9.976 -3.743,17.384 l 9.863,-2.967 c 1.312,-0.461 2.774,-0.078 3.692,0.968 0.917,1.046 1.107,2.544 0.479,3.786 -2.022,4.008 -3.271,9.003 -4.187,14.679 -0.869,5.382 -1.421,11.351 -1.945,17.688 1.907,-0.731 4.046,-1.308 6.386,-1.746 1.167,-0.217 2.364,0.18 3.171,1.051 0.807,0.871 1.11,2.095 0.804,3.243 -1.271,4.772 -1.663,9.532 -1.644,14.08 0.019,4.571 0.444,8.941 0.871,12.93 1.31,-1.115 2.774,-2.026 4.396,-2.727 1.048,-0.451 2.249,-0.364 3.221,0.233 0.972,0.597 1.591,1.631 1.661,2.769 0.575,9.296 0.695,17.994 2.041,28.317 0.868,6.648 2.25,13.979 4.602,22.601 2.661,-2.083 4.087,-3.629 5.664,-4.62 1.19,-0.748 2.439,-1.276 4.039,-1.579 1.134,-0.214 2.302,0.136 3.132,0.939 0.83,0.803 1.218,1.959 1.041,3.1 -0.675,4.386 -0.51,9.218 0.352,14.441 0.865,5.239 2.43,10.852 4.592,16.789 0.749,-0.574 1.521,-1.096 2.313,-1.564 2.555,-1.511 5.328,-2.476 8.364,-2.789 1.268,-0.129 2.509,0.422 3.264,1.45 0.754,1.027 0.909,2.377 0.406,3.548 -1.494,3.487 0.024,7.484 2.908,11.978 2.913,4.541 7.319,9.405 12.61,14.481 l 4.128,-6.36 c 0.669,-1.03 1.813,-1.652 3.041,-1.655 1.228,-0.003 2.374,0.615 3.048,1.641 3.007,4.574 7.091,8.292 11.693,11.62 5.368,3.883 11.431,7.232 17.462,10.645 0.361,-0.933 0.865,-1.814 1.503,-2.646 2.002,-2.613 5.621,-4.794 10.906,-6.237 1.29,-0.352 2.669,0.024 3.603,0.98 4.114,4.207 8.463,8.234 13.677,11.584 3.325,2.136 7.006,3.995 11.208,5.446 0.138,-0.593 0.332,-1.185 0.58,-1.778 1.059,-2.536 3.226,-5.152 6.711,-7.689 1.578,-1.147 3.774,-0.881 5.033,0.609 2.112,2.498 4.22,4.397 6.33,5.892 1.3,0.921 2.601,1.688 3.902,2.35 0.512,-0.811 1.184,-1.578 2.025,-2.299 2.418,-2.071 6.693,-3.82 13.382,-4.756 1.013,-0.14 2.04,0.138 2.842,0.773 0.803,0.634 1.311,1.568 1.408,2.586 l 0.001,0.01 c 2.384,-1.652 5.436,-2.814 9.205,-3.384 0.65,-0.097 1.314,-0.024 1.926,0.214 2.541,0.985 4.694,2.366 6.421,4.166 0.948,0.989 1.771,2.106 2.446,3.369 4.092,-1.105 8.041,-2.403 11.839,-3.903 4.917,-1.942 9.578,-4.223 13.963,-6.874 0.898,-0.542 1.98,-0.689 2.99,-0.407 2.779,0.774 4.122,2.089 4.854,3.678 0.367,0.795 0.52,1.83 0.466,3.209 9.664,-2.633 19.741,-5.153 29.065,-9.109 7.107,-3.015 13.772,-6.875 19.402,-12.37 0.876,-0.855 2.105,-1.242 3.313,-1.044 3.605,0.591 6.22,2.405 7.68,5.621 0.425,0.937 0.745,2.037 0.926,3.317 3.601,-2.544 7.029,-5.348 10.243,-8.473 4.743,-4.612 9.018,-9.925 12.693,-16.138 0.883,-1.49 2.647,-2.214 4.322,-1.772 2.401,0.633 4.711,1.892 6.912,3.724 1.04,0.866 2.062,1.866 3.059,2.989 2.431,-4.78 4.164,-9.379 5.331,-13.728 2.021,-7.539 2.333,-14.304 1.642,-19.904 -0.19,-1.551 0.564,-3.065 1.916,-3.847 1.352,-0.783 3.04,-0.683 4.29,0.255 l 7.826,5.864 c 2.641,-7.244 4.787,-14.078 6.149,-20.264 1.382,-6.281 1.967,-11.848 1.307,-16.425 -0.253,-1.764 0.714,-3.477 2.356,-4.17 1.642,-0.692 3.544,-0.19 4.631,1.222 l 4.534,5.89 c 2.023,-11.537 4.075,-22.221 5.288,-31.075 0.92,-6.708 1.377,-12.298 0.856,-16.296 -0.182,-1.396 0.394,-2.783 1.51,-3.641 1.117,-0.857 2.606,-1.055 3.908,-0.519 l 10.79,4.438 c -1.225,-10.34 -2.589,-20.472 -4.6,-29.639 -1.856,-8.465 -4.25,-16.088 -7.668,-22.21 -0.911,-1.632 -0.563,-3.678 0.837,-4.918 1.4,-1.239 3.473,-1.337 4.983,-0.235 l 10.733,7.826 c -1.241,-8.055 -2.507,-15.821 -4.522,-23.133 -1.903,-6.906 -4.479,-13.399 -8.433,-19.31 -0.926,-1.382 -0.891,-3.195 0.087,-4.541 0.978,-1.346 2.692,-1.939 4.293,-1.485 l 6.117,1.74 c -0.773,-6.651 -1.935,-12.228 -3.499,-17.643 -2.067,-7.156 -4.826,-14.034 -8.287,-22.676 -0.618,-1.539 -0.203,-3.301 1.038,-4.402 1.241,-1.101 3.039,-1.304 4.494,-0.508 1.977,1.086 4.152,2.433 6.557,4.091 l 1.031,0.729 c -1.365,-7.189 -3.055,-14.27 -5.104,-21.233 -2.97,-10.09 -6.694,-19.929 -11.306,-29.475 -0.722,-1.489 -0.402,-3.273 0.791,-4.419 1.194,-1.146 2.989,-1.393 4.448,-0.612 l 5.474,2.942 c -3.352,-9.524 -6.997,-18.866 -11.268,-27.818 -3.771,-7.903 -8.029,-15.503 -13.019,-22.648 -0.981,-1.4 -0.868,-3.292 0.274,-4.565 1.142,-1.273 3.011,-1.59 4.509,-0.765 2.156,1.193 4.365,2.338 6.861,3.193 0.372,0.128 0.751,0.249 1.137,0.359 -3.738,-9.623 -7.138,-18.377 -11.29,-25.978 -3.681,-6.739 -7.95,-12.551 -13.677,-17.185 -1.353,-1.091 -1.711,-3.006 -0.843,-4.512 0.868,-1.507 2.704,-2.157 4.327,-1.532 2.042,0.79 4.445,1.58 7.485,2.372 1.275,0.332 2.66,0.665 4.175,0.99 -3.295,-5.126 -6.39,-9.139 -9.4,-12.38 -6.237,-6.714 -12.088,-10.049 -18.53,-13.24 -1.103,-0.543 -1.826,-1.64 -1.891,-2.868 -0.065,-1.228 0.539,-2.395 1.578,-3.052 1.403,-0.882 3.183,-1.394 5.28,-1.562 1.832,-0.148 3.981,-0.013 6.308,0.167 -4.46,-3.158 -9.476,-5.848 -14.623,-8.092 -8.773,-3.823 -17.942,-6.347 -25.541,-7.593 -1.461,-0.235 -2.576,-1.431 -2.71,-2.904 -0.134,-1.474 0.748,-2.851 2.142,-3.346 4.755,-1.675 9.137,-3.656 13.533,-4.706 -5.564,-3.081 -11.933,-6.048 -18.56,-8.723 -9.907,-4.001 -20.392,-7.347 -29.668,-9.427 -1.457,-0.323 -2.462,-1.66 -2.366,-3.149 0.095,-1.489 1.262,-2.687 2.749,-2.821 l 6.292,-0.83 c -4.593,-1.245 -9.295,-2.276 -14.117,-3.068 -8.762,-1.438 -17.922,-2.086 -27.561,-1.783 -1.455,0.049 -2.713,-1.009 -2.912,-2.452 -0.218,-1.615 0.067,-3.11 0.927,-4.456 -5.349,0.347 -10.961,0.809 -15.207,0.625 -2.028,-0.087 -2.911,-1.182 -3.138,-2.835 -0.026,-0.195 -0.01,-0.477 0.038,-0.8 z"
   style="fill:#262d38"
   id="path17" />
    </g>
    <g
   transform="matrix(1.2835591,-0.07672592,0.07923092,1.3254664,15.53638,-137.18031)"
   id="g24">
        <path
   d="m 396.951,267.371 c 0.859,-11.354 4.259,-21.5 11.264,-29.44 0.895,2.688 3.284,4.737 8.96,5.376 0.907,-9.127 7.455,-16.387 15.872,-20.736 l 1.28,7.424 c 6.066,-6.378 13.133,-10.09 21.248,-11.008 l -1.536,8.448 c 9.49,-4.898 18.584,-5.426 27.392,-2.816 l -8.704,8.192 c 11.045,-1.412 21.893,0.129 32.256,8.96 l -9.728,6.656 c 8.448,1.536 14.506,7.424 16.128,13.056 l -7.936,4.608 c 2.198,7.177 3.271,13.65 0,17.408 l -6.912,-3.328 c -0.663,7.216 -3.519,13.179 -8.96,17.664 l -3.584,-4.352 c -3.128,9.047 -8.307,15.786 -16.896,18.688"
   style="fill:#9ed6ff"
   id="path18" />
        <clipPath
   id="_clip2">
            <path
   d="m 396.951,267.371 c 0.859,-11.354 4.259,-21.5 11.264,-29.44 0.895,2.688 3.284,4.737 8.96,5.376 0.907,-9.127 7.455,-16.387 15.872,-20.736 l 1.28,7.424 c 6.066,-6.378 13.133,-10.09 21.248,-11.008 l -1.536,8.448 c 9.49,-4.898 18.584,-5.426 27.392,-2.816 l -8.704,8.192 c 11.045,-1.412 21.893,0.129 32.256,8.96 l -9.728,6.656 c 8.448,1.536 14.506,7.424 16.128,13.056 l -7.936,4.608 c 2.198,7.177 3.271,13.65 0,17.408 l -6.912,-3.328 c -0.663,7.216 -3.519,13.179 -8.96,17.664 l -3.584,-4.352 c -3.128,9.047 -8.307,15.786 -16.896,18.688"
   id="path19" />
        </clipPath>
        <g
   clip-path="url(#_clip2)"
   id="g23">
            <g
   transform="matrix(0.964517,0.0558322,-0.0576551,0.934023,50.8417,4.00989)"
   id="g20">
                <path
   d="m 427.22,303.077 c 4.08,-4.605 29.498,-9.156 21.074,-24.097 2.489,1.078 5.115,1.521 8.56,-1.861 4.113,-4.273 5.171,-8.327 4.838,-12.282 1.438,2.498 3.758,4.379 8.373,4.652 1.786,-4.877 3.153,-9.419 3.35,-13.025 1.962,0.848 3.752,0.149 5.396,-1.861 -1.177,-4.118 -2.983,-7.4 -6.066,-8.977 l 3.29,-4.473 c -5.136,-2.893 -10.143,-4.238 -14.961,-3.32 0.876,-3.235 2.426,-6.395 6.163,-9.312 -7.918,-2.636 -15.087,-2.469 -21.734,-0.342 -0.247,-3.35 -2.106,-6.162 -5.211,-8.56 -6.684,0.756 -12.1,3.326 -16.561,7.258 -1.539,-0.943 -2.36,-2.603 -1.675,-5.769 -6.054,2.645 -8.945,6.133 -10.234,10.048 -3.089,-1.277 -5.439,-1.076 -7.258,0.186 -5.358,3.183 -7.965,6.549 -8.559,10.049 -4.362,-0.239 -8.448,0.277 -11.538,3.536 2.055,5.538 -10.631,12.196 -8.537,15.273 -9.846,3.154 -5.277,-3.668 -8.396,-8.202 l 16.003,-46.521 26.982,-16.189 68.851,1.861 43.171,14.142 6.885,29.773 -8.56,33.495 -56.755,31.82"
   style="fill:#8dbfe4"
   id="path20" />
            </g>
            <g
   transform="matrix(0.957854,0.123003,-0.127019,0.92757,61.2963,-30.0604)"
   id="g21">
                <path
   d="m 447.481,266.896 c -2.372,-0.248 -4.418,-0.585 -6.153,-1.191 -3.314,-1.157 -5.51,-2.86 -7.387,-4.5 -0.836,-0.583 -1.04,-1.735 -0.457,-2.571 0.583,-0.835 1.735,-1.04 2.57,-0.457 1.526,0.82 3.279,1.391 5.459,2 1.265,0.353 2.679,0.633 4.273,1 1.34,0.309 2.768,0.754 4.402,1.07 1.334,0.158 2.289,1.363 2.139,2.698 l -1.17,5.076 c -0.114,1.013 -1.028,1.742 -2.041,1.628 -1.012,-0.114 -1.742,-1.028 -1.628,-2.041 z"
   style="fill:#262d38"
   id="path21" />
            </g>
            <g
   transform="matrix(0.957854,0.123003,-0.127019,0.92757,61.2963,-30.0604)"
   id="g22">
                <path
   d="m 427.847,271.812 c 0.728,-2.933 3.954,-6.912 7.931,-10.546 2.193,-2.003 4.64,-3.869 7.216,-5.298 4.29,-2.38 8.927,-3.67 13.32,-1.345 0.874,0.524 2.009,0.24 2.533,-0.633 0.525,-0.874 0.241,-2.009 -0.633,-2.533 -5.457,-3.687 -11.899,-3.175 -17.738,-0.315 -3.107,1.521 -6.024,3.751 -8.453,6.256 -4.489,4.63 -7.345,10.145 -7.805,13.733 -0.188,1.002 0.473,1.967 1.474,2.155 1.002,0.188 1.967,-0.473 2.155,-1.474 z"
   style="fill:#262d38"
   id="path22" />
            </g>
        </g>
        <path
   d="m 436.314,224.08 c 1.949,-1.601 3.986,-2.974 6.108,-4.122 3.956,-2.14 8.217,-3.485 12.783,-4.034 1,-0.113 1.995,0.238 2.686,0.947 0.69,0.709 0.994,1.691 0.82,2.651 l -0.458,2.627 c 2.974,-1.059 5.914,-1.728 8.821,-2.052 5.204,-0.578 10.309,-0.04 15.333,1.433 1.128,0.334 1.99,1.22 2.267,2.331 0.277,1.11 -0.072,2.279 -0.918,3.075 l -2.324,2.201 c 3.16,0.123 6.298,0.565 9.407,1.411 5.534,1.507 10.985,4.282 16.299,8.851 0.75,0.639 1.156,1.575 1.103,2.541 -0.053,0.965 -0.56,1.854 -1.376,2.412 l -4.607,3.117 c 1.795,0.849 3.43,1.878 4.879,3.031 3.671,2.919 6.165,6.616 7.165,10.195 0.366,1.273 -0.191,2.626 -1.361,3.305 l -6.046,3.449 c 0.897,3.329 1.483,6.471 1.493,9.235 0.012,3.446 -0.843,6.37 -2.789,8.572 -0.837,0.961 -2.243,1.243 -3.405,0.684 l -3.526,-1.738 c -0.523,2.422 -1.31,4.691 -2.374,6.797 -1.67,3.305 -4.001,6.224 -7.075,8.707 -0.523,0.432 -1.204,0.639 -1.888,0.575 -0.684,-0.064 -1.312,-0.394 -1.74,-0.914 l -0.887,-1.098 c -1.389,3.006 -3.054,5.696 -5.044,8.011 -3.102,3.607 -6.975,6.33 -11.834,7.92 -1.157,0.391 -2.423,-0.201 -2.826,-1.321 -0.404,-1.12 0.207,-2.346 1.364,-2.737 3.993,-1.392 7.149,-3.707 9.655,-6.74 2.434,-2.947 4.243,-6.568 5.619,-10.682 0.289,-0.834 1.026,-1.449 1.921,-1.603 0.895,-0.153 1.805,0.18 2.371,0.868 l 1.866,2.221 c 1.55,-1.632 2.786,-3.439 3.732,-5.408 1.279,-2.665 2.011,-5.63 2.275,-8.862 0.08,-0.874 0.601,-1.654 1.392,-2.082 0.791,-0.429 1.749,-0.452 2.561,-0.061 l 4.523,2.127 c 0.298,-0.946 0.387,-2.019 0.365,-3.174 -0.057,-2.908 -0.912,-6.278 -2.034,-9.84 -0.384,-1.253 0.157,-2.6 1.315,-3.272 l 5.705,-3.371 c -0.966,-1.827 -2.486,-3.587 -4.411,-5.07 -2.309,-1.78 -5.221,-3.14 -8.555,-3.721 -1.263,-0.229 -2.262,-1.168 -2.535,-2.384 -0.274,-1.216 0.23,-2.473 1.279,-3.191 l 6.144,-4.251 c -3.454,-2.365 -6.957,-3.926 -10.5,-4.867 -5.222,-1.387 -10.528,-1.424 -15.884,-0.729 -1.441,0.185 -2.843,-0.547 -3.477,-1.814 -0.635,-1.268 -0.359,-2.786 0.684,-3.768 l 4.255,-3.979 c -2.251,-0.269 -4.526,-0.295 -6.825,-0.054 -4.002,0.421 -8.075,1.644 -12.238,3.776 -1.097,0.566 -2.43,0.477 -3.436,-0.23 -1.006,-0.706 -1.507,-1.906 -1.291,-3.091 l 0.769,-4.059 c -2.158,0.552 -4.227,1.347 -6.208,2.383 -3.172,1.658 -6.123,3.915 -8.862,6.754 -0.778,0.818 -1.97,1.135 -3.07,0.818 -1.101,-0.317 -1.919,-1.214 -2.108,-2.311 l -0.541,-3.282 c -2.365,1.572 -4.485,3.422 -6.223,5.525 -2.564,3.104 -4.313,6.747 -4.763,10.837 -0.069,0.692 -0.422,1.328 -0.981,1.765 -0.558,0.436 -1.274,0.637 -1.987,0.557 -3.427,-0.421 -5.825,-1.309 -7.506,-2.457 -0.535,-0.365 -1.007,-0.756 -1.42,-1.172 -2.339,3.127 -4.167,6.568 -5.545,10.265 -1.734,4.648 -2.771,9.69 -3.231,15.015 -0.09,1.183 -1.154,2.073 -2.375,1.986 -1.222,-0.086 -2.141,-1.117 -2.051,-2.3 0.373,-5.741 1.387,-11.188 3.147,-16.228 1.885,-5.399 4.639,-10.328 8.386,-14.663 0.601,-0.682 1.537,-0.996 2.445,-0.82 0.909,0.176 1.648,0.814 1.932,1.668 0.352,1.02 1.075,1.86 2.345,2.476 0.553,0.268 1.193,0.49 1.928,0.669 0.836,-4.045 2.685,-7.726 5.248,-10.959 2.994,-3.777 6.989,-6.926 11.489,-9.307 0.838,-0.433 1.84,-0.449 2.693,-0.042 0.852,0.406 1.45,1.185 1.606,2.093 z"
   style="fill:#262d38"
   id="path23" />
    </g>
    <g
   transform="matrix(1.339655,0,0,1.4037397,-117.3564,-178.02162)"
   id="g30">
        <path
   d="m 371.653,269.252 c -5.29,-16.174 -10.581,-26.834 -15.872,-30.72 l -7.936,4.608 c -0.007,-8.301 -2.295,-15.336 -8.448,-20.224 l -5.375,5.12 c -6.094,-6.397 -13.022,-8.621 -20.48,-8.192 l 4.352,7.424 c -10.879,-2.404 -20.183,-2.289 -27.648,0.768 l 6.656,6.144 c -9.8,3.186 -17.508,6.969 -22.528,11.52 l 8.448,5.376 c -6.379,6.179 -10.775,13.02 -11.008,21.248 l 8.192,2.816 c -4.214,6.061 -4.235,11.773 -0.256,17.152 l 5.888,-4.352 c -0.63,6.597 0.885,11.408 4.352,14.592 l 7.168,-5.888 c 1.544,3.643 5.026,5.829 9.984,5.376"
   style="fill:#9ed6ff"
   id="path24" />
        <clipPath
   id="_clip3">
            <path
   d="m 371.653,269.252 c -5.29,-16.174 -10.581,-26.834 -15.872,-30.72 l -7.936,4.608 c -0.007,-8.301 -2.295,-15.336 -8.448,-20.224 l -5.375,5.12 c -6.094,-6.397 -13.022,-8.621 -20.48,-8.192 l 4.352,7.424 c -10.879,-2.404 -20.183,-2.289 -27.648,0.768 l 6.656,6.144 c -9.8,3.186 -17.508,6.969 -22.528,11.52 l 8.448,5.376 c -6.379,6.179 -10.775,13.02 -11.008,21.248 l 8.192,2.816 c -4.214,6.061 -4.235,11.773 -0.256,17.152 l 5.888,-4.352 c -0.63,6.597 0.885,11.408 4.352,14.592 l 7.168,-5.888 c 1.544,3.643 5.026,5.829 9.984,5.376"
   id="path25" />
        </clipPath>
        <g
   clip-path="url(#_clip3)"
   id="g29">
            <g
   transform="matrix(0.927429,0,0,0.885088,148.149,30.1015)"
   id="g26">
                <path
   d="m 237.796,270.889 c -5.499,-8.877 -12.141,-13.467 -19.625,-14.901 1.324,-0.864 2.442,-2.142 3.271,-3.998 -11.323,-7.187 -18.621,-9.344 -23.988,-9.086 -1.74,-3.271 -1.174,-6.542 2.545,-9.813 -8.334,0.011 -13.745,1.372 -15.628,4.361 -4.62,-3.797 -10.015,-3.715 -15.629,-2.544 -0.466,1.958 0.264,4.087 3.271,6.542 -9.799,-0.597 -14.703,2.07 -18.535,5.452 -1.607,4.433 -2.465,8.599 2.907,10.539 -5.021,3.174 -8.761,6.507 -9.812,10.177 -1.247,5.408 1.204,8.968 6.905,10.903 -2.255,1.454 -3.425,2.908 -3.696,4.361 3.131,-0.199 6.611,1.352 10.238,3.635 -1.297,2.017 -2.009,4.18 -1.32,6.693 4.942,-0.69 9.595,0.93 14.04,4.21 12.706,1.32 12.773,4.555 9.086,8.359 l -9.449,9.813 -49.065,-8.359 -7.632,-44.703 2.907,-43.25 30.166,-13.084 53.79,-5.815 36.707,17.082 13.084,21.443 14.538,23.26"
   style="fill:#8dbfe4"
   id="path26" />
            </g>
            <g
   transform="matrix(0.927429,0,0,0.885088,143.151,38.1147)"
   id="g27">
                <path
   d="m 195.189,267.574 0.891,4.208 c 0.499,0.888 0.183,2.015 -0.705,2.513 -0.889,0.499 -2.015,0.183 -2.514,-0.705 -0.774,-0.954 -1.404,-1.867 -1.952,-2.803 -0.669,-1.14 -1.06,-2.284 -1.397,-3.378 -0.142,-0.801 0.076,-1.625 0.597,-2.25 1.172,-1.275 2.233,-2.388 3.366,-3.146 1.582,-1.059 3.057,-1.634 4.484,-1.927 0.949,-0.371 2.021,0.099 2.391,1.048 0.371,0.949 -0.099,2.021 -1.048,2.391 -0.556,0.344 -1.002,0.847 -1.576,1.354 -0.817,0.719 -1.665,1.591 -2.537,2.695 z"
   style="fill:#262d38"
   id="path27" />
            </g>
            <g
   transform="matrix(0.927429,0,0,0.885088,143.151,38.1147)"
   id="g28">
                <path
   d="m 206.447,268.8 c -0.408,-6.505 -6.334,-12.463 -13.471,-15.594 -4.119,-1.808 -8.596,-2.549 -12.195,-2.437 -4.265,0.132 -7.443,1.602 -8.527,4.077 -0.469,0.904 -0.116,2.02 0.789,2.489 0.904,0.469 2.02,0.115 2.489,-0.789 0.574,-0.949 1.916,-1.076 3.499,-1.144 3.274,-0.141 7.574,1.14 11.715,2.957 2.714,1.19 5.384,2.567 7.521,4.337 2.247,1.861 4.045,3.956 4.511,6.519 0.115,1.013 1.03,1.742 2.042,1.627 1.013,-0.114 1.742,-1.03 1.627,-2.042 z"
   style="fill:#262d38"
   id="path28" />
            </g>
        </g>
        <path
   d="m 311.908,223.134 -1.071,-1.846 c -0.521,-0.888 -0.526,-1.969 -0.015,-2.863 0.512,-0.893 1.468,-1.472 2.533,-1.533 4.4,-0.221 8.628,0.381 12.635,2.048 2.802,1.165 5.505,2.844 8.073,5.147 l 3.311,-3.106 c 1.048,-0.998 2.719,-1.069 3.856,-0.166 3.543,2.869 5.946,6.356 7.407,10.356 0.87,2.382 1.411,4.946 1.663,7.665 l 4.169,-2.363 c 0.892,-0.517 2.025,-0.458 2.852,0.149 2.929,2.2 5.918,6.301 8.804,12.224 2.534,5.201 5.059,11.846 7.562,19.8 0.35,1.071 -0.277,2.212 -1.399,2.546 -1.122,0.334 -2.317,-0.264 -2.668,-1.334 -2.604,-7.667 -5.192,-14.067 -7.766,-19.062 -2.138,-4.149 -4.222,-7.288 -6.323,-9.276 l -6.321,3.761 c -0.81,0.47 -1.823,0.487 -2.65,0.044 -0.827,-0.443 -1.339,-1.278 -1.34,-2.183 -0.046,-3.707 -0.575,-7.135 -1.764,-10.191 -0.902,-2.315 -2.2,-4.405 -3.976,-6.223 l -3.394,3.282 c -0.565,0.539 -1.337,0.833 -2.136,0.814 -0.798,-0.018 -1.554,-0.348 -2.091,-0.912 -2.595,-2.683 -5.344,-4.535 -8.232,-5.687 -1.519,-0.605 -3.075,-1.011 -4.665,-1.242 l 1.672,2.822 c 0.606,1.035 0.516,2.314 -0.23,3.262 -0.746,0.949 -2.008,1.388 -3.219,1.12 -4.728,-1.029 -9.141,-1.565 -13.216,-1.556 -2.695,0.005 -5.236,0.251 -7.614,0.758 l 2.789,2.578 c 0.808,0.746 1.151,1.839 0.905,2.885 -0.245,1.047 -1.044,1.896 -2.107,2.242 -5.192,1.672 -9.776,3.517 -13.66,5.562 -1.705,0.898 -3.273,1.831 -4.688,2.812 l 4.928,3.175 c 0.76,0.484 1.254,1.266 1.348,2.134 0.093,0.868 -0.224,1.73 -0.866,2.351 -2.934,2.797 -5.443,5.732 -7.257,8.912 -1.502,2.633 -2.532,5.428 -2.919,8.443 l 6.121,2.158 c 0.804,0.276 1.43,0.89 1.699,1.664 0.268,0.774 0.149,1.624 -0.323,2.303 -1.742,2.461 -2.707,4.84 -2.811,7.177 -0.072,1.638 0.274,3.242 1.02,4.817 l 3.554,-2.571 c 0.796,-0.589 1.882,-0.67 2.765,-0.209 0.884,0.462 1.396,1.38 1.304,2.337 -0.283,2.666 -0.198,5.012 0.287,7.051 0.376,1.577 0.982,2.962 1.829,4.151 l 5.411,-4.351 c 0.552,-0.454 1.298,-0.625 2.006,-0.462 0.707,0.164 1.289,0.643 1.562,1.287 0.595,1.447 1.569,2.615 2.928,3.334 1.291,0.683 2.893,0.979 4.758,0.827 1.171,-0.107 2.212,0.713 2.324,1.83 0.112,1.117 -0.747,2.11 -1.917,2.217 -2.833,0.288 -5.266,-0.189 -7.253,-1.19 -1.391,-0.7 -2.568,-1.668 -3.509,-2.857 l -5.055,4.241 c -0.922,0.758 -2.297,0.721 -3.174,-0.084 -1.838,-1.654 -3.218,-3.697 -4.126,-6.142 -0.568,-1.527 -0.944,-3.22 -1.116,-5.085 l -1.765,1.334 c -0.563,0.415 -1.279,0.594 -1.983,0.493 -0.704,-0.1 -1.334,-0.471 -1.745,-1.026 -2.453,-3.247 -3.597,-6.63 -3.509,-10.113 0.058,-2.284 0.664,-4.624 1.852,-7.014 l -5.116,-1.713 c -1.159,-0.398 -1.919,-1.462 -1.886,-2.637 0.092,-4.646 1.389,-8.901 3.565,-12.87 1.485,-2.707 3.39,-5.279 5.614,-7.746 l -5.498,-3.455 c -0.79,-0.503 -1.297,-1.321 -1.378,-2.224 -0.082,-0.903 0.272,-1.792 0.96,-2.416 2.421,-2.219 5.423,-4.283 8.962,-6.185 2.902,-1.56 6.175,-3.012 9.783,-4.364 l -2.969,-2.737 c -0.778,-0.718 -1.127,-1.759 -0.932,-2.774 0.196,-1.016 0.91,-1.87 1.904,-2.277 3.616,-1.468 7.618,-2.322 11.989,-2.573 3.42,-0.196 7.074,-0.024 10.948,0.505 z"
   style="fill:#262d38"
   id="path29" />
    </g>
    <g
   transform="matrix(1.5859055,0,0,1.5859055,-1167.0322,-1360.3968)"
   id="g36">
        <g
   transform="matrix(0.750832,0.030158,-0.0388848,0.9681,304.864,12.74)"
   id="g31">
            <path
   d="m 1030.19,1191.44 c 0,5.03 -4.71,14.09 -1.45,17.47 3.65,3.8 30.17,6.95 33.55,-1.77 1.95,-5.06 -5.28,-12.25 -5.28,-16.57"
   style="fill:#ffffff"
   id="path30" />
            <path
   d="m 1028.7,1191.44 c 0,3.25 -2,8.21 -2.49,12.19 -0.3,2.48 0.02,4.61 1.33,5.97 0.75,0.78 2.27,1.58 4.37,2.25 4.53,1.43 11.89,2.38 18.33,1.93 6.48,-0.47 11.97,-2.42 13.48,-6.31 0.67,-1.75 0.42,-3.73 -0.32,-5.77 -1.45,-3.97 -4.9,-8.21 -4.9,-11.13 0,-0.64 -0.67,-1.16 -1.49,-1.16 -0.83,0 -1.49,0.52 -1.49,1.16 0,3.07 3.48,7.57 5.01,11.76 0.57,1.58 0.85,3.12 0.33,4.48 -1.19,3.07 -5.77,4.3 -10.89,4.66 -5.08,0.36 -10.78,-0.22 -14.94,-1.22 -2.44,-0.58 -4.35,-1.25 -5.1,-2.03 -0.95,-0.99 -0.97,-2.57 -0.75,-4.37 0.5,-4.05 2.51,-9.1 2.51,-12.41 0,-0.64 -0.67,-1.16 -1.5,-1.16 -0.82,0 -1.49,0.52 -1.49,1.16 z"
   style="fill:#262d38"
   id="path31" />
        </g>
        <g
   transform="matrix(1.13356,-0.0818359,0.0818359,1.13356,-235.123,-63.5956)"
   id="g33">
            <path
   d="m 1041.69,1166.97 c -5.33,-0.08 -18.23,0.21 -24.48,5.71 -4.05,3.56 -5.26,11.44 -0.04,15.62 3.3,2.65 8.85,2.3 12.95,2.2 11.19,-0.25 34.78,4.31 39.66,0.38 4.16,-3.37 2.95,-10.74 -0.66,-15 -5.18,-6.11 -15.88,-8.76 -27.43,-8.91 z"
   style="fill:#ded0cb"
   id="path32" />
            <path
   d="m 1041.71,1165.46 c -3.39,-0.05 -9.76,0.06 -15.64,1.48 -3.76,0.91 -7.32,2.37 -9.86,4.61 -2.38,2.09 -3.92,5.48 -4.02,8.94 -0.09,3.3 1.11,6.64 4.04,8.99 1.54,1.23 3.5,1.93 5.62,2.27 2.76,0.45 5.79,0.32 8.3,0.26 8.08,-0.18 22.63,2.15 31.93,1.97 4.01,-0.07 7.12,-0.7 8.64,-1.93 2.1,-1.69 3.1,-4.22 3.19,-6.97 0.11,-3.53 -1.32,-7.43 -3.64,-10.17 -2.49,-2.94 -6.16,-5.15 -10.58,-6.68 -5.19,-1.81 -11.45,-2.68 -17.98,-2.77 z m -0.04,3.01 c 6.18,0.09 12.11,0.89 17.04,2.6 3.86,1.34 7.09,3.22 9.26,5.79 1.55,1.82 2.6,4.28 2.87,6.69 0.26,2.38 -0.24,4.72 -2.01,6.16 -1.67,1.34 -5.75,1.4 -10.72,1.21 -9.12,-0.36 -21.01,-2.08 -28.03,-1.92 -2.34,0.05 -5.17,0.2 -7.75,-0.22 -1.58,-0.26 -3.07,-0.73 -4.22,-1.66 -2.13,-1.7 -2.97,-4.15 -2.9,-6.55 0.07,-2.61 1.19,-5.18 2.99,-6.76 2.21,-1.94 5.31,-3.15 8.57,-3.94 5.61,-1.36 11.68,-1.44 14.9,-1.4 z"
   style="fill:#262d38"
   id="path33" />
        </g>
        <g
   transform="matrix(0.939934,-0.169558,0.235637,1.30623,-210.149,-171.644)"
   id="g35">
            <path
   d="m 1025.83,1161.76 c -1.8,6.14 31.21,13.67 31.79,3.82 0.68,-11.45 -28.55,-14.93 -31.79,-3.82 z"
   style="fill:#262d38"
   id="path34" />
            <path
   d="m 1023.96,1161.48 c -0.41,1.41 0.35,2.92 2.18,4.32 3.57,2.73 11.53,5.18 18.66,5.77 7.84,0.65 14.44,-1.08 14.73,-5.93 0.37,-6.35 -7.26,-10.65 -15.72,-11.74 -8.73,-1.12 -17.98,1.21 -19.85,7.58 z m 3.73,0.56 c 1.42,-4.88 8.76,-6.31 15.45,-5.44 6.6,0.84 12.88,3.97 12.58,8.92 -0.19,3.3 -5.16,3.77 -10.49,3.33 -5.31,-0.44 -11.17,-2 -14.75,-3.93 -1.76,-0.95 -3.09,-1.87 -2.79,-2.88 z"
   style="fill:#262d38"
   id="path35" />
        </g>
    </g>
    
    <g
   transform="matrix(1.2697432,0,0,1.2249907,-1230.9678,-939.72713)"
   id="g50"
   inkscape:label="g50">
        <g
   transform="matrix(-1.25817,0,0,1.3565,2717.71,-423.983)"
   id="g47">
            <path
   d="m 1229.68,1046.91 c -26.92,-7.48 -59.1,-8.53 -84.93,13.07 -53.45,44.68 -21.68,127.72 41.43,147.83 22.14,7.05 52.51,2.93 72.26,-10.89 61.91,-43.32 37.51,-131.61 -28.76,-150.01 z"
   style="fill:#ffffff"
   id="path43" />
            <clipPath
   id="_clip5">
                <path
   d="m 1229.68,1046.91 c -26.92,-7.48 -59.1,-8.53 -84.93,13.07 -53.45,44.68 -21.68,127.72 41.43,147.83 22.14,7.05 52.51,2.93 72.26,-10.89 61.91,-43.32 37.51,-131.61 -28.76,-150.01 z"
   id="path44" />
            </clipPath>
            <g
   clip-path="url(#_clip5)"
   id="g46">
                <g
   transform="matrix(0.872195,0,0,0.831309,128.549,177.106)"
   id="g45">
                    <path
   d="m 1218.51,1039.68 c 89,11.56 110.43,80.05 91.49,125.33 -25.38,60.65 -132.89,59.5 -170.67,5.98 l 89.8,128.08 143.66,-24.9 18.1,-129.54 -35.19,-127.03 c 0,0 -225.01,10.67 -137.19,22.08 z"
   style="fill-opacity:0.06"
   id="path45" />
                </g>
            </g>
            <path
   d="m 1230.02,1045.77 c 34.34,9.13 57.91,36.73 64.65,67.52 6.65,30.36 -3.04,63.77 -34.38,86.07 -10.16,7.12 -23.02,11.8 -36.22,13.77 -13.45,2 -27.24,1.18 -38.84,-2.56 -32.04,-10.41 -56.16,-36.56 -65.56,-65.91 -9.56,-29.89 -3.95,-63.03 23.9,-85.99 12.79,-10.56 27.05,-15.74 41.48,-17.39 15.35,-1.76 30.88,0.49 44.97,4.49 z m -0.68,2.29 c -13.79,-3.75 -28.97,-5.8 -43.92,-3.91 -13.79,1.75 -27.38,6.87 -39.5,17.13 -26.12,22.15 -31.02,53.68 -21.55,81.96 9.27,27.69 32.3,52.29 62.76,61.81 10.76,3.39 23.52,3.98 35.96,2.09 12.2,-1.85 24.1,-6.09 33.5,-12.67 29.76,-20.46 39.16,-51.7 33.49,-80.3 -5.88,-29.71 -27.95,-56.62 -60.74,-66.11 z"
   style="fill:#262d38"
   id="path46" />
        </g>
        <g
   transform="matrix(1.42135,0,0,0.774093,-96.2861,249.695)"
   id="g48">
            <ellipse
   cx="899.79999"
   cy="1086.89"
   rx="16.372"
   ry="29.469999"
   style="fill:#262d38"
   id="ellipse47" />
            <path
   d="m 899.8,1053.69 c -4.979,-0.14 -9.517,3.36 -12.869,9.07 -3.554,6.05 -5.746,14.63 -5.807,24.13 -0.035,9.57 2.12,18.27 5.645,24.47 3.359,5.92 7.968,9.52 13.031,9.5 5.05,-0.05 9.625,-3.72 12.961,-9.64 3.489,-6.2 5.64,-14.82 5.602,-24.33 -0.045,-9.45 -2.225,-17.98 -5.744,-24.03 -3.332,-5.73 -7.85,-9.26 -12.819,-9.17 z m 0,7.47 c 3.904,0.07 7.433,2.93 10.007,7.52 2.605,4.65 4.209,11.1 4.175,18.21 -0.029,7.06 -1.695,13.39 -4.318,17.92 -2.558,4.42 -6.041,7.1 -9.864,7.05 -3.809,-0.01 -7.255,-2.77 -9.793,-7.19 -2.59,-4.52 -4.249,-10.78 -4.274,-17.78 -0.045,-7.06 1.537,-13.47 4.112,-18.1 2.557,-4.61 6.061,-7.52 9.955,-7.63 z"
   style="fill:#262d38"
   id="path47" />
        </g>
        <g
   transform="matrix(0.84684,0,0,0.481289,408.209,551.847)"
   id="g49">
            <ellipse
   cx="899.79999"
   cy="1086.89"
   rx="16.372"
   ry="29.469999"
   style="fill:#ffffff"
   id="ellipse48" />
        </g>
    </g>
    <g
   transform="matrix(1.525635,0,0,1.525635,-334.86692,-260.14653)"
   id="g67">
        <path
   d="m 556.788,541.26 c 66.029,-19.591 148.181,-83.407 148.181,-83.407 0,0 31.056,58.562 70.098,86.069 -14.471,132.456 -119.41,187.398 -119.41,187.398 -5.245,2.824 -90.413,-106.223 -98.869,-190.06 z"
   style="fill:#00f583"
   id="path50" />
        <clipPath
   id="_clip6">
            <path
   d="m 556.788,541.26 c 66.029,-19.591 148.181,-83.407 148.181,-83.407 0,0 31.056,58.562 70.098,86.069 -14.471,132.456 -119.41,187.398 -119.41,187.398 -5.245,2.824 -90.413,-106.223 -98.869,-190.06 z"
   id="path51" />
        </clipPath>
        <g
   clip-path="url(#_clip6)"
   id="g66">
            <g
   transform="matrix(1.26413,-0.387381,0.387586,1.40355,-561.978,-295.984)"
   id="g64">
                <g
   transform="translate(-49.3119,-1.86083)"
   id="g53">
                    <path
   d="m 744.778,838.689 c 0,0 5.583,-35.123 9.537,-38.38 3.954,-3.256 46.986,-0.465 52.568,3.722 5.583,4.187 5.583,29.075 5.583,37.449 0,8.374 -5.117,31.402 -11.398,37.914 -6.28,6.513 -50.242,0.466 -53.498,-3.023 -3.257,-3.489 -2.792,-37.682 -2.792,-37.682 z"
   style="fill:#00f583"
   id="path52" />
                    <path
   d="m 743.115,838.43 c -0.01,0.065 -0.016,0.131 -0.017,0.197 0,0 -0.113,15.413 0.798,26.639 0.309,3.805 0.739,7.138 1.322,9.268 0.352,1.283 0.805,2.195 1.255,2.672 0.501,0.531 1.727,1.189 3.585,1.776 5.756,1.818 18.372,3.778 29.736,4.315 5.923,0.28 11.507,0.175 15.616,-0.52 3.106,-0.525 5.41,-1.427 6.576,-2.647 2.675,-2.791 5.17,-8.497 7.134,-14.849 2.72,-8.794 4.473,-18.819 4.465,-23.773 0.01,-5.408 0.019,-17.668 -1.445,-26.866 -0.867,-5.447 -2.374,-9.839 -4.504,-11.447 -2.801,-2.117 -14.809,-4.043 -26.839,-4.948 -8.196,-0.617 -16.391,-0.806 -21.57,-0.376 -3.014,0.25 -5.1,0.815 -5.893,1.461 -0.519,0.423 -1.104,1.262 -1.662,2.467 -0.971,2.098 -1.996,5.446 -2.985,9.295 -2.935,11.424 -5.572,27.336 -5.572,27.336 z m 3.342,0.419 c -0.025,1.328 -0.267,15.696 0.468,26.305 0.25,3.619 0.608,6.791 1.139,8.821 0.192,0.732 0.349,1.286 0.602,1.56 0.183,0.198 0.592,0.366 1.139,0.584 1.029,0.412 2.465,0.839 4.201,1.264 6.336,1.549 16.528,3.04 25.862,3.555 5.698,0.314 11.074,0.269 15.035,-0.369 2.443,-0.393 4.322,-0.959 5.247,-1.91 2.541,-2.619 4.863,-8.017 6.745,-14.002 2.697,-8.578 4.444,-18.366 4.452,-23.205 -0.01,-5.348 -0.019,-17.472 -1.513,-26.56 -0.779,-4.738 -1.84,-8.636 -3.703,-10.025 -0.776,-0.578 -2.37,-1.08 -4.494,-1.578 -5.086,-1.194 -13.031,-2.14 -20.972,-2.675 -8.018,-0.54 -16.032,-0.661 -21.09,-0.195 -2.158,0.199 -3.715,0.399 -4.278,0.868 -0.319,0.265 -0.603,0.828 -0.94,1.578 -0.904,2.011 -1.837,5.22 -2.736,8.905 -2.647,10.84 -4.957,25.732 -5.164,27.079 z"
   style="fill:#0e3a25"
   id="path53" />
                </g>
                <g
   transform="translate(-45.032,-1.48866)"
   id="g54">
                    <path
   d="m 756.411,841.505 c 6.448,0.803 12.904,1.288 19.37,1.594 4.519,0.214 9.042,0.349 13.569,0.47 1.162,0.031 2.324,0.078 3.486,0.082 0.777,0.003 1.549,-0.026 2.326,-0.038 0.2,0.007 0.366,-0.135 0.368,-0.317 0.003,-0.182 -0.158,-0.336 -0.359,-0.344 -0.725,-0.066 -1.444,-0.148 -2.17,-0.196 -2.892,-0.192 -5.787,-0.254 -8.678,-0.359 -5.422,-0.197 -10.838,-0.369 -16.25,-0.709 -3.859,-0.242 -7.716,-0.551 -11.571,-0.988 -0.245,-0.029 -0.465,0.128 -0.49,0.35 -0.026,0.222 0.153,0.426 0.399,0.455 z"
   style="fill:#0e3a25"
   id="path54" />
                </g>
                <g
   transform="matrix(1.3381,0.0949354,-0.13189,1.85896,-208.815,-780.24)"
   id="g55">
                    <ellipse
   cx="793.57898"
   cy="814.29498"
   rx="4.7680001"
   ry="2.559"
   style="fill:#0e3a25"
   id="ellipse54" />
                    <path
   d="m 793.578,811.666 c -1.263,-0.006 -2.416,0.248 -3.287,0.667 -1,0.482 -1.627,1.182 -1.635,1.96 -0.006,0.784 0.616,1.493 1.617,1.985 0.873,0.429 2.034,0.691 3.309,0.693 1.275,-0.002 2.437,-0.264 3.31,-0.693 0.998,-0.491 1.618,-1.199 1.612,-1.982 -0.008,-0.781 -0.637,-1.483 -1.642,-1.965 -0.87,-0.418 -2.023,-0.671 -3.284,-0.665 z m 0.003,0.14 c 1.205,0.006 2.301,0.257 3.124,0.664 0.917,0.453 1.494,1.103 1.486,1.823 -0.005,0.717 -0.59,1.358 -1.509,1.803 -0.822,0.399 -1.911,0.641 -3.105,0.639 -1.192,0.002 -2.279,-0.239 -3.1,-0.636 -0.92,-0.445 -1.506,-1.086 -1.511,-1.803 -0.008,-0.721 0.569,-1.37 1.486,-1.825 0.824,-0.408 1.922,-0.659 3.129,-0.665 z"
   style="fill:#0e3a25"
   id="path55" />
                </g>
                <g
   transform="matrix(1.3381,0.0949354,-0.13189,1.85896,-208.112,-768.955)"
   id="g56">
                    <ellipse
   cx="793.57898"
   cy="814.29498"
   rx="4.7680001"
   ry="2.559"
   style="fill:#0e3a25"
   id="ellipse55" />
                    <path
   d="m 793.578,811.666 c -1.263,-0.006 -2.416,0.248 -3.287,0.667 -1,0.482 -1.627,1.182 -1.635,1.96 -0.006,0.784 0.616,1.493 1.617,1.985 0.873,0.429 2.034,0.691 3.309,0.693 1.275,-0.002 2.437,-0.264 3.31,-0.693 0.998,-0.491 1.618,-1.199 1.612,-1.982 -0.008,-0.781 -0.637,-1.483 -1.642,-1.965 -0.87,-0.418 -2.023,-0.671 -3.284,-0.665 z m 0.003,0.14 c 1.205,0.006 2.301,0.257 3.124,0.664 0.917,0.453 1.494,1.103 1.486,1.823 -0.005,0.717 -0.59,1.358 -1.509,1.803 -0.822,0.399 -1.911,0.641 -3.105,0.639 -1.192,0.002 -2.279,-0.239 -3.1,-0.636 -0.92,-0.445 -1.506,-1.086 -1.511,-1.803 -0.008,-0.721 0.569,-1.37 1.486,-1.825 0.824,-0.408 1.922,-0.659 3.129,-0.665 z"
   style="fill:#0e3a25"
   id="path56" />
                </g>
                <g
   transform="matrix(1.3381,0.0949354,-0.13189,1.85896,-207.519,-757.559)"
   id="g57">
                    <ellipse
   cx="793.57898"
   cy="814.29498"
   rx="4.7680001"
   ry="2.559"
   style="fill:#0e3a25"
   id="ellipse56" />
                    <path
   d="m 793.578,811.666 c -1.263,-0.006 -2.416,0.248 -3.287,0.667 -1,0.482 -1.627,1.182 -1.635,1.96 -0.006,0.784 0.616,1.493 1.617,1.985 0.873,0.429 2.034,0.691 3.309,0.693 1.275,-0.002 2.437,-0.264 3.31,-0.693 0.998,-0.491 1.618,-1.199 1.612,-1.982 -0.008,-0.781 -0.637,-1.483 -1.642,-1.965 -0.87,-0.418 -2.023,-0.671 -3.284,-0.665 z m 0.003,0.14 c 1.205,0.006 2.301,0.257 3.124,0.664 0.917,0.453 1.494,1.103 1.486,1.823 -0.005,0.717 -0.59,1.358 -1.509,1.803 -0.822,0.399 -1.911,0.641 -3.105,0.639 -1.192,0.002 -2.279,-0.239 -3.1,-0.636 -0.92,-0.445 -1.506,-1.086 -1.511,-1.803 -0.008,-0.721 0.569,-1.37 1.486,-1.825 0.824,-0.408 1.922,-0.659 3.129,-0.665 z"
   style="fill:#0e3a25"
   id="path57" />
                </g>
                <g
   transform="matrix(1.20614,0.0055365,-0.00759979,1.65563,-203.767,-502.583)"
   id="g58">
                    <ellipse
   cx="793.57898"
   cy="814.29498"
   rx="4.7680001"
   ry="2.559"
   style="fill:#0e3a25"
   id="ellipse57" />
                    <path
   d="m 793.576,811.657 c -1.26,-0.007 -2.411,0.245 -3.283,0.661 -1.012,0.483 -1.645,1.189 -1.654,1.974 -0.007,0.792 0.625,1.51 1.64,2.005 0.874,0.426 2.034,0.687 3.306,0.689 1.273,-0.002 2.434,-0.263 3.308,-0.69 1.009,-0.494 1.635,-1.209 1.628,-1.998 -0.009,-0.789 -0.648,-1.498 -1.667,-1.983 -0.871,-0.415 -2.021,-0.665 -3.278,-0.658 z m 0.007,0.158 c 1.195,0.006 2.282,0.254 3.101,0.657 0.919,0.452 1.499,1.1 1.49,1.819 -0.006,0.716 -0.594,1.355 -1.514,1.798 -0.819,0.394 -1.9,0.633 -3.086,0.631 -1.181,0.003 -2.258,-0.234 -3.075,-0.626 -0.922,-0.441 -1.51,-1.081 -1.516,-1.796 -0.008,-0.721 0.57,-1.369 1.488,-1.822 0.821,-0.405 1.912,-0.655 3.112,-0.661 z"
   style="fill:#0e3a25"
   id="path58" />
                </g>
                <g
   transform="matrix(1.28887,0.128456,-0.162292,1.62837,-160.665,-568.399)"
   id="g59">
                    <ellipse
   cx="793.57898"
   cy="814.29498"
   rx="4.7680001"
   ry="2.559"
   style="fill:#0e3a25"
   id="ellipse58" />
                    <path
   d="m 793.578,811.656 c -1.222,-0.006 -2.343,0.231 -3.203,0.626 -1.054,0.485 -1.716,1.207 -1.724,2.012 -0.006,0.81 0.651,1.542 1.706,2.039 0.862,0.406 1.99,0.652 3.224,0.654 1.235,-0.002 2.364,-0.248 3.226,-0.654 1.053,-0.496 1.709,-1.228 1.703,-2.037 -0.009,-0.807 -0.673,-1.531 -1.73,-2.016 -0.86,-0.394 -1.98,-0.631 -3.202,-0.624 z m 0.002,0.159 c 1.169,0.007 2.236,0.244 3.05,0.631 0.955,0.453 1.563,1.112 1.556,1.848 -0.006,0.731 -0.621,1.38 -1.577,1.823 -0.813,0.377 -1.873,0.604 -3.031,0.602 -1.157,0.002 -2.216,-0.224 -3.028,-0.599 -0.957,-0.443 -1.573,-1.093 -1.579,-1.824 -0.007,-0.736 0.6,-1.396 1.555,-1.849 0.815,-0.388 1.883,-0.625 3.054,-0.632 z"
   style="fill:#0e3a25"
   id="path59" />
                </g>
                <g
   transform="matrix(1.30819,0.0326824,-0.0414088,1.65748,-292.354,-507.233)"
   id="g60">
                    <ellipse
   cx="793.57898"
   cy="814.29498"
   rx="4.7680001"
   ry="2.559"
   style="fill:#0e3a25"
   id="ellipse59" />
                    <path
   d="m 793.577,811.657 c -1.224,-0.006 -2.345,0.231 -3.205,0.627 -1.052,0.484 -1.712,1.205 -1.72,2.008 -0.006,0.811 0.654,1.544 1.71,2.04 0.862,0.405 1.989,0.651 3.222,0.654 1.235,-0.002 2.365,-0.249 3.227,-0.656 1.049,-0.495 1.703,-1.225 1.697,-2.033 -0.009,-0.807 -0.674,-1.531 -1.733,-2.017 -0.859,-0.393 -1.978,-0.63 -3.198,-0.623 z m 0.005,0.157 c 1.168,0.007 2.234,0.244 3.048,0.629 0.957,0.453 1.565,1.113 1.558,1.849 -0.006,0.731 -0.621,1.381 -1.577,1.825 -0.813,0.377 -1.875,0.606 -3.036,0.604 -1.156,0.002 -2.213,-0.224 -3.026,-0.599 -0.958,-0.442 -1.574,-1.093 -1.58,-1.825 -0.007,-0.736 0.6,-1.396 1.555,-1.85 0.816,-0.388 1.885,-0.626 3.058,-0.633 z"
   style="fill:#0e3a25"
   id="path60" />
                </g>
                <g
   transform="matrix(1.3381,0.0949354,-0.13189,1.85896,-238.855,-759.134)"
   id="g61">
                    <ellipse
   cx="793.57898"
   cy="814.29498"
   rx="4.7680001"
   ry="2.559"
   style="fill:#0e3a25"
   id="ellipse60" />
                    <path
   d="m 793.578,811.666 c -1.263,-0.006 -2.416,0.248 -3.287,0.667 -1,0.482 -1.627,1.182 -1.635,1.96 -0.006,0.784 0.616,1.493 1.617,1.985 0.873,0.429 2.034,0.691 3.309,0.693 1.275,-0.002 2.437,-0.264 3.31,-0.693 0.998,-0.491 1.618,-1.199 1.612,-1.982 -0.008,-0.781 -0.637,-1.483 -1.642,-1.965 -0.87,-0.418 -2.023,-0.671 -3.284,-0.665 z m 0.003,0.14 c 1.205,0.006 2.301,0.257 3.124,0.664 0.917,0.453 1.494,1.103 1.486,1.823 -0.005,0.717 -0.59,1.358 -1.509,1.803 -0.822,0.399 -1.911,0.641 -3.105,0.639 -1.192,0.002 -2.279,-0.239 -3.1,-0.636 -0.92,-0.445 -1.506,-1.086 -1.511,-1.803 -0.008,-0.721 0.569,-1.37 1.486,-1.825 0.824,-0.408 1.922,-0.659 3.129,-0.665 z"
   style="fill:#0e3a25"
   id="path61" />
                </g>
                <g
   transform="matrix(1.3381,0.0949354,-0.13189,1.85896,-237.19,-770.926)"
   id="g62">
                    <ellipse
   cx="793.57898"
   cy="814.29498"
   rx="4.7680001"
   ry="2.559"
   style="fill:#0e3a25"
   id="ellipse61" />
                    <path
   d="m 793.578,811.666 c -1.263,-0.006 -2.416,0.248 -3.287,0.667 -1,0.482 -1.627,1.182 -1.635,1.96 -0.006,0.784 0.616,1.493 1.617,1.985 0.873,0.429 2.034,0.691 3.309,0.693 1.275,-0.002 2.437,-0.264 3.31,-0.693 0.998,-0.491 1.618,-1.199 1.612,-1.982 -0.008,-0.781 -0.637,-1.483 -1.642,-1.965 -0.87,-0.418 -2.023,-0.671 -3.284,-0.665 z m 0.003,0.14 c 1.205,0.006 2.301,0.257 3.124,0.664 0.917,0.453 1.494,1.103 1.486,1.823 -0.005,0.717 -0.59,1.358 -1.509,1.803 -0.822,0.399 -1.911,0.641 -3.105,0.639 -1.192,0.002 -2.279,-0.239 -3.1,-0.636 -0.92,-0.445 -1.506,-1.086 -1.511,-1.803 -0.008,-0.721 0.569,-1.37 1.486,-1.825 0.824,-0.408 1.922,-0.659 3.129,-0.665 z"
   style="fill:#0e3a25"
   id="path62" />
                </g>
                <g
   transform="matrix(1.3381,0.0949354,-0.13189,1.85896,-235.782,-782.192)"
   id="g63">
                    <ellipse
   cx="793.57898"
   cy="814.29498"
   rx="4.7680001"
   ry="2.559"
   style="fill:#0e3a25"
   id="ellipse62" />
                    <path
   d="m 793.578,811.666 c -1.263,-0.006 -2.416,0.248 -3.287,0.667 -1,0.482 -1.627,1.182 -1.635,1.96 -0.006,0.784 0.616,1.493 1.617,1.985 0.873,0.429 2.034,0.691 3.309,0.693 1.275,-0.002 2.437,-0.264 3.31,-0.693 0.998,-0.491 1.618,-1.199 1.612,-1.982 -0.008,-0.781 -0.637,-1.483 -1.642,-1.965 -0.87,-0.418 -2.023,-0.671 -3.284,-0.665 z m 0.003,0.14 c 1.205,0.006 2.301,0.257 3.124,0.664 0.917,0.453 1.494,1.103 1.486,1.823 -0.005,0.717 -0.59,1.358 -1.509,1.803 -0.822,0.399 -1.911,0.641 -3.105,0.639 -1.192,0.002 -2.279,-0.239 -3.1,-0.636 -0.92,-0.445 -1.506,-1.086 -1.511,-1.803 -0.008,-0.721 0.569,-1.37 1.486,-1.825 0.824,-0.408 1.922,-0.659 3.129,-0.665 z"
   style="fill:#0e3a25"
   id="path63" />
                </g>
            </g>
            <g
   transform="matrix(0.814375,0,0,0.814375,111.281,110.305)"
   id="g65">
                <path
   d="m 913.686,583.469 c -39.921,-41.418 -74.447,-116.276 -80.165,-75.492 -9.451,67.408 -87.516,87.277 -130.527,109.198 -72.683,-6.662 -135.155,-34.27 -169.63,-62.331 l 112.945,364.517 z"
   style="fill:#0ba043;fill-opacity:0.45"
   id="path64" />
            </g>
        </g>
        <path
   d="m 555.641,537.396 c -1.855,0.55 -3.058,2.342 -2.864,4.268 3.534,33.352 19.018,70.6 36.899,103.356 20.166,36.939 43.327,68.157 55.518,81.503 3.648,3.993 6.461,6.465 8.011,7.276 1.744,0.914 3.098,0.621 3.889,0.191 -0.031,0.016 46.893,-24.772 82.651,-80.811 17.954,-28.137 33.177,-64.135 38.11,-108.952 l -1.173,-2.598 c -11.494,-8.153 -22.264,-19.061 -31.72,-30.327 -22.214,-26.467 -37.181,-54.941 -37.181,-54.941 -0.44,-0.83 -1.225,-1.424 -2.144,-1.621 -0.919,-0.197 -1.879,0.022 -2.621,0.599 0,0 -39.419,30.339 -85.528,55.319 -20.257,10.974 -41.81,20.909 -61.847,26.738 z m 148.341,-74.772 c -9.975,7.591 -44.085,32.893 -82.968,54.466 -19.561,10.852 -40.326,20.756 -59.864,27.029 2.986,25.209 12.731,52.562 24.928,78.294 20.478,43.202 47.87,81.851 62.263,98.385 2.786,3.201 5.953,6.1 7.145,7.161 7.544,-4.219 48.115,-28.44 79.687,-77.704 17.399,-27.148 31.984,-61.915 36.922,-105.005 -11.424,-8.234 -22.161,-19.008 -31.635,-30.143 -18.224,-21.42 -31.757,-44.168 -36.478,-52.483 z"
   style="fill:#0e3a25"
   id="path66" />
    </g>
<g
   transform="matrix(1.1749243,0,0,1.1551497,-747.60489,-876.10703)"
   id="g43">
        <g
   transform="matrix(1.25817,0,0,1.3565,-316.71,-423.983)"
   id="g40">
            <path
   d="m 1229.68,1046.91 c -26.92,-7.48 -59.1,-8.53 -84.93,13.07 -53.45,44.68 -21.68,127.72 41.43,147.83 22.14,7.05 52.51,2.93 72.26,-10.89 61.91,-43.32 37.51,-131.61 -28.76,-150.01 z"
   style="fill:#ffffff"
   id="path36" />
            <clipPath
   id="_clip4">
                <path
   d="m 1229.68,1046.91 c -26.92,-7.48 -59.1,-8.53 -84.93,13.07 -53.45,44.68 -21.68,127.72 41.43,147.83 22.14,7.05 52.51,2.93 72.26,-10.89 61.91,-43.32 37.51,-131.61 -28.76,-150.01 z"
   id="path37" />
            </clipPath>
            <g
   clip-path="url(#_clip4)"
   id="g39">
                <g
   transform="matrix(0.872195,0,0,0.831309,128.549,177.106)"
   id="g38">
                    <path
   d="m 1231.22,1038.69 c 83.3,25.16 96.34,95.95 65.19,144.12 -36.03,55.72 -148.18,21.49 -158.75,-27.26 l -19.3,108.97 254.43,9.65 18.1,-129.54 -35.19,-127.03 c 0,0 -209.1,-4.47 -124.48,21.09 z"
   style="fill-opacity:0.06"
   id="path38" />
                </g>
            </g>
            <path
   d="m 1230.06,1045.7 c -14.13,-4.02 -29.71,-6.27 -45.1,-4.5 -14.43,1.66 -28.69,6.85 -41.5,17.41 -27.81,22.9 -33.51,55.95 -24.07,85.8 9.34,29.52 33.55,55.86 65.75,66.32 11.65,3.76 25.5,4.59 39.02,2.57 13.23,-1.97 26.12,-6.67 36.31,-13.8 31.3,-22.31 41.03,-55.66 34.44,-86.01 -6.72,-30.92 -30.38,-58.64 -64.85,-67.79 z m -0.76,2.42 c 32.82,9.52 54.84,36.52 60.63,66.28 5.55,28.49 -3.87,59.57 -33.52,79.94 -9.34,6.54 -21.19,10.77 -33.32,12.62 -12.41,1.89 -25.14,1.3 -35.86,-2.07 -30.51,-9.52 -53.54,-34.2 -62.75,-61.94 -9.36,-28.17 -4.45,-59.54 21.55,-81.6 12.07,-10.23 25.61,-15.35 39.34,-17.1 14.96,-1.91 30.14,0.13 43.93,3.87 z"
   style="fill:#262d38"
   id="path39" />
        </g>
        <g
   transform="matrix(1.42135,0,0,0.774093,-55.001645,247.43749)"
   id="g41">
            <ellipse
   cx="899.79999"
   cy="1086.89"
   rx="16.372"
   ry="29.469999"
   style="fill:#262d38"
   id="ellipse40" />
            <path
   d="m 899.8,1053.46 c -5.06,-0.15 -9.67,3.42 -13.066,9.25 -3.544,6.09 -5.73,14.68 -5.796,24.18 -0.038,9.58 2.107,18.29 5.619,24.53 3.402,6.05 8.091,9.74 13.243,9.72 5.138,-0.07 9.79,-3.81 13.167,-9.87 3.473,-6.23 5.615,-14.87 5.573,-24.38 -0.05,-9.45 -2.222,-17.99 -5.73,-24.07 -3.372,-5.84 -7.961,-9.45 -13.01,-9.36 z m 0,7.92 c 3.88,0.07 7.381,2.95 9.925,7.53 2.553,4.6 4.117,10.98 4.08,17.98 -0.031,6.95 -1.663,13.2 -4.236,17.68 -2.527,4.39 -5.978,7.07 -9.769,7.02 -3.775,-0.02 -7.186,-2.77 -9.691,-7.18 -2.538,-4.46 -4.163,-10.63 -4.19,-17.52 -0.049,-6.95 1.491,-13.28 4.013,-17.87 2.525,-4.59 6,-7.52 9.868,-7.64 z"
   style="fill:#262d38"
   id="path40" />
        </g>
        <g
   transform="matrix(0.84684,0,0,0.481289,449.49375,549.59049)"
   id="g42">
            <ellipse
   cx="899.79999"
   cy="1086.89"
   rx="16.372"
   ry="29.469999"
   style="fill:#ffffff"
   id="ellipse41" />
        </g>
    </g><text
   xml:space="preserve"
   style="font-style:normal;font-variant:normal;font-weight:normal;font-stretch:normal;font-size:26.6667px;font-family:sans-serif;-inkscape-font-specification:sans-serif;white-space:pre;inline-size:152.9;clip-rule:evenodd;display:inline;fill:#ff0000;fill-opacity:1;fill-rule:evenodd;stroke-width:1.00001;stroke-linejoin:round;stroke-miterlimit:2;stroke-dasharray:none"
   x="959.70514"
   y="297.543"
   id="text68"
   transform="matrix(16.460713,0,0,32.044685,-14893.061,-8717.4195)"
   inkscape:label="名称"><tspan
     x="959.70514"
     y="297.543"
     id="tspan4"><tspan
       style="font-family:'Yu Gothic UI';-inkscape-font-specification:'Yu Gothic UI';fill:#000000"
       id="tspan3">Password</tspan></tspan></text></svg>
